<svg xmlns="http://www.w3.org/2000/svg" viewBox="0 0 1986 874"><defs><style>.cls-1{fill:#e7f2fb;}.cls-2{fill:#062d5b;}.cls-3{fill:#f6951f;}.cls-4{fill:#092247;}.cls-5{fill:#002b58;}.cls-6{fill:none;stroke:#f6951f;stroke-miterlimit:10;stroke-width:2px;}</style></defs><title>fundo</title><g id="Camada_2" data-name="Camada 2"><rect class="cls-1" width="1986" height="874"/></g><g id="Camada_1" data-name="Camada 1"><path class="cls-2" d="M190.86,105.71h5.19v5.19h-5.19Z" transform="translate(40 36)"/><path class="cls-2" d="M201.25,105.71h5.2v5.19h-5.2Z" transform="translate(40 36)"/><path class="cls-2" d="M211.64,105.71h5.2v5.19h-5.2Z" transform="translate(40 36)"/><path class="cls-2" d="M180.47,95.32V173.6h88.67V95.32ZM264,100.51V116.1H185.66V100.51Zm-78.29,67.9V121.3H264v47.11Z" transform="translate(40 36)"/><path class="cls-2" d="M213,129.31l-12.22,15.53L213,160.37l4.08-3.22-9.69-12.31,9.69-12.32Z" transform="translate(40 36)"/><path class="cls-2" d="M232.6,132.52l9.69,12.32-9.69,12.31,4.09,3.22,12.21-15.53-12.21-15.53Z" transform="translate(40 36)"/><path class="cls-2" d="M222.21,129.26h5.19v31.18h-5.19Z" transform="translate(40 36)"/><path class="cls-2" d="M187.62,339.46H102.5a.28.28,0,0,0-.2.08c-1.59,1.44-.56,3.23.9,3.23h75.35a7.44,7.44,0,0,1,7.48,7.4V410a7.44,7.44,0,0,1-7.48,7.4H85.84a7.44,7.44,0,0,1-7.49-7.4V344a1.21,1.21,0,0,1,1.21-1.2H96.81a.26.26,0,0,0,.19-.07c1.57-1.45.55-3.24-.89-3.24H76.76A1.75,1.75,0,0,0,75,341.2V410A10.81,10.81,0,0,0,85.88,420.7h27.58l-3.35,10.82h-6.57a5.82,5.82,0,0,0-5.8,4.74,5.76,5.76,0,0,0,5.72,6.74h57.37a5.84,5.84,0,0,0,5.8-4.74,5.77,5.77,0,0,0-5.72-6.74h-6.63l-3.35-10.82H178.5A10.82,10.82,0,0,0,189.39,410V341.2A1.75,1.75,0,0,0,187.62,339.46Zm-26.93,100h-57a2.39,2.39,0,0,1-2.41-2.11,2.34,2.34,0,0,1,2.36-2.53h57.12a2.35,2.35,0,0,1,2.37,2.53A2.39,2.39,0,0,1,160.69,439.47Zm-9.61-8H113.29l3.35-10.82h31.09Z" transform="translate(40 36)"/><path class="cls-2" d="M178.35,394.15a1.68,1.68,0,0,0,1.88-1.67V350.09a1.82,1.82,0,0,0-1.83-1.8H85.76a1.81,1.81,0,0,0-1.82,1.81v54.8a1.68,1.68,0,0,0,1.69,1.67h92.91a1.68,1.68,0,0,0,1.69-1.66v-5.75a1.71,1.71,0,0,0-1.48-1.71,1.67,1.67,0,0,0-1.87,1.66v4.15H87.51V351.82h89.37v40.61A1.71,1.71,0,0,0,178.35,394.15Z" transform="translate(40 36)"/><path class="cls-2" d="M133.59,410.75a1.69,1.69,0,1,0-.23,2.14A1.67,1.67,0,0,0,133.59,410.75Z" transform="translate(40 36)"/><path class="cls-3" d="M583.68,242.32c-12-28.26-39.88-46.52-71.11-46.52s-59.14,18.26-71.11,46.52a4.06,4.06,0,0,0,.55,4.09A4.31,4.31,0,0,0,446,248a4.25,4.25,0,0,0,3.39-2.53,69,69,0,0,1,126.46,0,4.3,4.3,0,0,0,7.49.7A4.05,4.05,0,0,0,583.68,242.32Z" transform="translate(40 36)"/><path class="cls-3" d="M559.24,253.29a50.94,50.94,0,0,0-93.34,0,4.08,4.08,0,0,0,.54,4.1,4.31,4.31,0,0,0,3.94,1.61,4.26,4.26,0,0,0,3.39-2.52,42.33,42.33,0,0,1,77.6,0,4.3,4.3,0,0,0,7.48.69A4,4,0,0,0,559.24,253.29Z" transform="translate(40 36)"/><path class="cls-3" d="M534.8,264.24a24.27,24.27,0,0,0-44.45,0,4,4,0,0,0,.52,4.1A4.32,4.32,0,0,0,494.8,270a4.27,4.27,0,0,0,3.4-2.52,15.66,15.66,0,0,1,28.74,0,4.25,4.25,0,0,0,3.92,2.53H531a4.28,4.28,0,0,0,3.44-1.87A4.06,4.06,0,0,0,534.8,264.24Z" transform="translate(40 36)"/><path class="cls-3" d="M516.83,276.82a4.26,4.26,0,1,0-4.26,4.15A4.21,4.21,0,0,0,516.83,276.82Z" transform="translate(40 36)"/><path class="cls-3" d="M893.08,564c0-12.63,0-25.27,0-37.91,0-1.48.32-2.1,1.92-2a52.87,52.87,0,0,0,5.63,0c1,0,1.46.32,1.36,1.34,0,.32,0,.65,0,1q0,37.43,0,74.86c0,1.75-.41,2.43-2.23,2.23a22.92,22.92,0,0,0-4.46,0c-1.72.17-2.29-.33-2.28-2.18C893.12,588.89,893.08,576.45,893.08,564Z" transform="translate(40 36)"/><path class="cls-4" d="M1142.09,611.85h-51.56c-5,0-7.41-2.4-7.42-7.35q0-14.4,0-28.8c0-4.48,2.47-6.92,7-6.92,9,0,18,0,27,0,1.68,0,2.27-.29,2.27-2.16q-.11-51.46,0-102.93c0-1.56-.29-2.05-2-2-9,.09-17.9-.06-26.85.09-4,.06-7.67-2.6-7.55-7.6.23-9.53.06-19.07.07-28.6,0-4.41,2.57-7,7-7q52.05,0,104.09,0c4.37,0,7,2.66,7,7q0,14.51,0,29c0,4.63-2.59,7.16-7.28,7.17-9.08,0-18.16,0-27.24,0-1.5,0-1.78.42-1.78,1.83q.07,51.66,0,103.32c0,1.68.49,2,2,2,9.08-.08,18.16-.05,27.24,0,4.41,0,7,2.56,7,7q0,14.49,0,29c0,4.52-2.59,7.08-7.13,7.08Z" transform="translate(40 36)"/><path class="cls-4" d="M987.36,534.19q0-35.22,0-70.43c0-1.58-.33-2.07-2-2.06-8.89.09-17.77.05-26.66,0-5.21,0-7.72-2.52-7.72-7.76v-28.4c0-.39,0-.78,0-1.17.23-4.64,1.08-5.93,6-5.92q53.12.13,106.23.05c4.27,0,5.85,1.49,5.87,5.84q.07,15.36,0,30.74c0,4-2.78,6.6-7.05,6.61-9.08,0-18.16.06-27.24,0-1.61,0-2,.39-2,2q.06,70,0,140.08c0,5.71-2.33,8.06-8,8.06H994.77c-4.91,0-7.4-2.48-7.4-7.42Q987.36,569.32,987.36,534.19Z" transform="translate(40 36)"/><path class="cls-4" d="M878,171.49c3.69,0,7.39-.09,11.07,0a2.27,2.27,0,0,0,2.65-1.69c3-7.49,10.35-11.78,19-11.25a18.37,18.37,0,0,1,16.48,13.21c2.73,10.1-4.54,20.53-15.21,21.82-8.89,1.08-15.88-2.5-20.1-10.41-.52-1-1.23-1-2-1.05a150.71,150.71,0,0,0-36.8,1.69c-16,2.87-31.22,7.87-45.18,16.34-15.51,9.41-27.78,21.82-34.76,38.85-4.73,11.56-6.29,23.51-3,35.74,4.59,17.14,16,27.18,33.15,30.9,10.13,2.19,20.25,1.32,30.27-.89,4-.87,6.74-3.41,8.74-6.88,2.77-4.8,4.33-10.09,6.17-15.26a79.56,79.56,0,0,1,8-17c6.12-9.36,15.14-14.64,25.33-18.36,6.21-2.26,12.65-3.75,18.91-5.83,5.32-1.78,9.88-4.48,12.29-9.92,3.24-7.3,1.8-14-4.22-19.3-5-4.39-11.13-6.22-17.5-7.34-22.9-4-43.35,2.18-62,15.23-11.17,7.8-20.3,17.51-26.15,30-2.46,5.24-4.32,10.71-3.67,16.66.74,6.8,5.29,10.38,12,9,7.93-1.58,14.91-5.09,20.28-11.34,4.86-5.66,9.16-11.77,13.84-17.56,5.23-6.47,10.67-12.73,17.49-17.61a1.19,1.19,0,0,0,.52-1.63c-3.65-8.83,5.75-20.22,17.94-17.11,8,2,12.6,9.78,10.38,17.26A14.76,14.76,0,0,1,873,237.3a3.91,3.91,0,0,0-4,.71c-6.65,5-11.83,11.41-17,17.86-4.79,6-9,12.61-14.55,18-7.92,7.63-17.4,12.42-28.57,12.82-9.72.34-17.38-6.12-19.59-15.83-1.81-8,.07-15.45,3.05-22.73,5.68-13.86,15.24-24.74,26.92-33.83,13.3-10.37,28.18-17.36,44.91-20,14.73-2.35,29.24-1.56,43,4.53,8.27,3.65,14.4,9.65,17.09,18.56,3.45,11.4-2.21,26.73-15.84,32.51-6.16,2.62-12.69,4-19,6.09a73.07,73.07,0,0,0-13.73,5.83c-8,4.53-12.43,11.83-15.61,20.12-2.25,5.85-4,11.9-6.64,17.59-3.12,6.66-7.28,12.68-14.62,14.72-18.25,5.07-36.44,5.39-53.65-3.82-15.56-8.33-24.13-21.87-26.59-39.11-3-21.1,3.55-39.66,16.36-56.2,12-15.48,27.8-25.83,45.77-33.05a150.44,150.44,0,0,1,51-10.75c2.07-.07,4.15,0,6.22,0Zm31.17-6c-7.44,0-12.87,5.77-11.7,12.49.83,4.72,5.12,8.27,10.73,8.88,6.67.72,12.88-4.78,12.65-11.21C920.67,170.09,915.47,165.56,909.19,165.54Zm-31.53,65.59c4.26,0,7.78-3.24,7.79-7s-3.72-7.16-8-7.09-7.78,3.32-7.78,7.08S873.36,231.19,877.66,231.13Z" transform="translate(40 36)"/><path class="cls-4" d="M1010.65,282.55c-.26-9-2.86-17.08-6.46-24.9a88.21,88.21,0,0,0-17.3-24.95,36.92,36.92,0,0,0-15.15-9.54c-4.92-1.57-7.11.47-6,5.56a48.35,48.35,0,0,0,3.61,9.41c2,4.47,4.13,8.91,4.92,13.84a17.64,17.64,0,0,1-4.65,15.24,41.25,41.25,0,0,1-24.93,13.17c-13.23,2.09-26.2,4.94-38.38,10.68a32.75,32.75,0,0,0-8.54,5.33c-1.14,1.06-2.77,2.12-2,4s2.72,2,4.51,1.78a67.31,67.31,0,0,0,11.86-2.9c10.18-3.21,20.21-6.91,30.63-9.29s20.92-3.58,31.62-2.26a20.85,20.85,0,0,0,8.5-.41c1.47-.44,2.82-1.12,3-2.92.12-1.55-.09-2.59-2.13-2.84a10.49,10.49,0,0,1-9.33-10.84,10.93,10.93,0,0,1,10.82-10.15c7.28-.08,12.66,5.56,11.58,12.15,0,.12,0,.28-.06.38-1.77,2.75-.84,5.54-.45,8.47,1.26,9.29-4.69,15.91-14.58,16.78-4.1.36-8.15-.14-12.22-.4-12.83-.8-25.08,2.19-37.19,5.94-8.4,2.6-16.59,5.86-25.17,7.84-3.94.91-7.9,1.53-11.93.64a12.91,12.91,0,0,1-8-19.84,27.73,27.73,0,0,1,9-8.13c8.9-5.39,18.71-8.46,28.71-11,6-1.52,12-2.49,18.11-3.5a34.71,34.71,0,0,0,17-8.06c3.71-3.16,4.73-6.87,3-11.47-1.61-4.24-3.68-8.27-5.37-12.46s-3.22-8.4-2.67-13c1.13-9.5,8.36-14.59,17.69-12.44a43.77,43.77,0,0,1,21,12c13.08,12.94,22.34,28.25,26.21,46.35,3.84,17.95-.45,34.24-12.12,48.34-7.31,8.82-17.75,11.19-28.48,7.12-12.58-4.78-25.56-5.75-38.82-4.39A79.71,79.71,0,0,0,916,328.39a47.75,47.75,0,0,1-34.14,2.3c-13.39-4.11-20.08-14-18.66-28,1.92-18.91,12.51-31.26,29.85-38.17,7.88-3.14,16.21-4.94,24.18-7.81a52.59,52.59,0,0,0,12.2-5.88c8.38-5.76,11.8-13.64,10.05-23.69-.35-2-1-3.9-1.31-5.88a2.61,2.61,0,0,0-2.47-2.35,12.85,12.85,0,0,1-9.74-17.48c2.58-6.32,10.05-9.78,17-7.85s11,8.07,9.91,14.85a11.4,11.4,0,0,1-3.88,7,2.29,2.29,0,0,0-.71,2.83c1.69,5.76,2.74,11.63,2.07,17.64-1.21,10.75-7,18.59-15.91,24.31-7.27,4.67-15.41,7.26-23.58,9.74-6.37,1.94-12.91,3.48-18.79,6.69-11.77,6.4-18.22,16.17-18.28,29.81,0,6.25,2.79,10.65,8.56,13.05,9.58,4,19.22,3.38,28.56-.5,7.15-3,14.32-5.65,22-6.82,16.91-2.6,33.61-2,49.77,4.12,7.71,2.93,13.16.78,17.94-5,5.45-6.56,8.09-14.38,9.46-22.67C1010.34,286.54,1010.46,284.4,1010.65,282.55ZM939,199.92c-3.7,0-7.07,3-7.13,6.31s3.33,6.44,7.18,6.41,7-2.95,7-6.36S942.72,199.94,939,199.92Zm46.73,74.6c2.46,0,4.27-1.43,4.25-3.33a4,4,0,0,0-4.25-3.67c-2.36,0-4.46,1.78-4.41,3.77C981.35,273.11,983.29,274.54,985.71,274.52Z" transform="translate(40 36)"/><path class="cls-4" d="M954.43,340.45a82.31,82.31,0,0,0-33.71,8.15c-1.32.65-1.67,1.32-1.29,2.83.82,3.26-.42,6.12-2.39,8.66-5.59,7.24-17.35,6.63-22.06-1.19a11.39,11.39,0,0,1,.37-13.17c3.13-4.5,7.71-6.55,13-5.46,3.1.64,5.35,0,8.07-1.29,15.77-7.57,32.37-10.66,49.83-8.35a31.65,31.65,0,0,1,8.57,2.42c8.35,3.64,11.65,11.06,8.93,20-2.64,8.64-7.89,12.78-17.2,13.83-7.4.84-14.75,0-22.12-.46a24.62,24.62,0,0,0-8.68.48c-3.66,1.07-6.27,5.28-5.44,8.79.25,1.05,1.08.48,1.58.39a21.11,21.11,0,0,1,9.8.62,19.07,19.07,0,0,1,13.84,19.87c-.51,8-7.52,15.44-16.07,17-11,2-21.21-4.23-23.77-14.45-1.45-5.81,0-11,3.63-15.66a3.37,3.37,0,0,0,.88-2.94,27.55,27.55,0,0,1,.06-10.24c1.71-8.08,7.65-13.26,16.06-14.32,6.19-.77,12.29.33,18.42.59a52.07,52.07,0,0,0,12.78-.58,8.69,8.69,0,0,0,6.59-9,4.7,4.7,0,0,0-2.94-3.82,23.9,23.9,0,0,0-8.6-2.23A49.29,49.29,0,0,0,954.43,340.45Zm-19.06,42.27a13.09,13.09,0,0,0-3.84.52c-6.06,1.64-10.21,7.47-9.29,13a12,12,0,0,0,8.19,9.75,13.52,13.52,0,0,0,14-2.39,11.22,11.22,0,0,0,1.37-16.24A13.41,13.41,0,0,0,935.37,382.72Zm-35.19-30.16c0,3.11,2.73,5.62,6.17,5.65s6.38-2.56,6.35-5.7-2.82-5.53-6.3-5.53S900.19,349.44,900.18,352.56Z" transform="translate(40 36)"/><path class="cls-3" d="M792.24,596.63a22.19,22.19,0,0,1-12.5,8c-13.88,3.29-26-4.34-29.31-18.48a43.88,43.88,0,0,1-1.22-10.4c0-8.43,0-16.86,0-25.3a36.36,36.36,0,0,1,3-14.93c3.2-7.08,8.59-11.41,16.29-12.67s15-.06,21.05,5.41c.77.68,1.5,1.4,2.49,2.34v-2.13c0-11.74,0-23.48,0-35.22,0-1.49.32-2.09,1.91-2a44.23,44.23,0,0,0,5.64,0c1.15-.05,1.53.39,1.39,1.46a5,5,0,0,0,0,.77q0,53.91,0,107.81c0,1.84-.54,2.22-2.25,2.19-5.2-.11-5.2,0-6-5.18A2.41,2.41,0,0,0,792.24,596.63ZM792,566.32c0-7.46,0-12.52,0-17.58a16.35,16.35,0,0,0-.35-2.5c-1.44-8.71-6.69-14.62-14.42-15.32-8.35-.76-14.78,2.25-17.44,10.37a22.66,22.66,0,0,0-1.26,6.86c-.08,9.14-.08,18.29-.12,27.43a40.71,40.71,0,0,0,.56,7c2,11.9,13.7,18.09,24,12.62,5.4-2.88,7.68-7.88,8.68-13.58C792.64,575.73,791.83,569.8,792,566.32Z" transform="translate(40 36)"/><path class="cls-3" d="M849.45,568.13c-6.49,0-13,0-19.46,0-1.56,0-2,.46-1.93,2,.19,4.27-.24,8.55.52,12.81,1.46,8.17,6.81,12.91,15.07,13.25a25.61,25.61,0,0,0,7.15-.6c6.91-1.68,10.93-6.46,12-14.52.2-1.5.64-2,2.13-1.91,1.94.12,3.89.06,5.84,0,1,0,1.29.34,1.21,1.39-1.13,14.69-10.82,24-25.62,24.51-5.13.19-10.11-.43-14.69-2.87C824,598.06,820.61,591.19,819.3,583a42.85,42.85,0,0,1-.42-6.79c0-8.89,0-17.77,0-26.66a32,32,0,0,1,3-13.93c3.84-7.94,10.38-12.06,19-13a30.36,30.36,0,0,1,13.63,1.32c9.88,3.54,14.73,11,16.09,21,1,7.28.23,14.64.45,22,0,1.32-.68,1.26-1.58,1.25Zm-4.33-8.3c5.12,0,10.24,0,15.35,0,.93,0,1.63,0,1.59-1.29-.14-4.2.15-8.41-.34-12.61-1-8.7-6.56-14.09-15.14-14.6-10.56-.64-16.7,4.18-18.22,14.49-.6,4-.15,8.16-.31,12.23-.06,1.54.53,1.82,1.91,1.8C835,559.79,840.06,559.83,845.12,559.83Z" transform="translate(40 36)"/><path class="cls-3" d="M960.87,596.38c-9.85,13.52-31.54,10.28-39-.6-6.48-9.44-5.5-24.7,2.48-32.08,4.22-3.9,9.43-5.52,15-6.14,6.4-.7,12.83-.24,19.24-.3,1.46,0,2-.3,2-1.9-.12-4,.08-7.91-.6-11.83-1.76-9.94-9-13.29-17.59-12.27-7.85.93-11.73,4.82-13.25,12.7-.18,1-.58,1.11-1.39,1.1-2,0-4-.11-6,0-1.46.09-1.7-.49-1.62-1.79A21.69,21.69,0,0,1,935,524c8.07-2.64,16.13-2.6,23.63,1.93,6.61,4,9.43,10.4,10.46,17.78a49.24,49.24,0,0,1,.35,7c0,16.92,0,33.85,0,50.77,0,1.63-.43,2.2-2,2-1.9-.22-4.41.82-5.57-.44s-.65-3.55-.89-5.41C961,597.34,960.94,597,960.87,596.38ZM949.8,565.67c-3.26.13-7.09-.31-10.88.47-5.67,1.16-10,4-11.5,9.9-1.52,6.12-1,12,4,16.43,4.32,3.83,9.69,4.43,15.17,3.82,9.23-1,13.7-7.59,13.77-14.43.06-5,.07-10,.16-15,0-1.13-.52-1.26-1.43-1.25C956.19,565.69,953.27,565.67,949.8,565.67Z" transform="translate(40 36)"/><path class="cls-3" d="M874.32,474.24c-5.22,5.4-11.29,6.29-17.66,5.27-8.59-1.37-14.32-7.42-15.54-16.14-1.07-7.67-.32-15.41-.46-23.11a28.33,28.33,0,0,1,.84-6.93c3.15-13.39,14.31-16.91,23.62-14.7,3.88.92,6.83,3.3,9.31,6.62a10.17,10.17,0,0,0,.85-4.17c.13-1.38.7-1.67,2-1.67,4.25,0,4.25,0,4.25,4.26,0,23.48-.14,46.95.06,70.43.11,12.72-8.34,20.08-20.5,19.83-9.6-.2-16.35-5.2-18.59-13.59-1.2-4.52-1.2-4.44,3.46-4.55,1.85-.05,2.74.19,3.17,2.4,1.24,6.45,7.14,10,14.38,9.05s10.83-5.05,10.84-12.44V474.24Zm-.12-24.91h.12c0-3.24,0-6.48,0-9.72,0-4.11-.9-8-3.78-11.13-3.67-4-8.36-4.37-13.25-3.12-5.15,1.31-8,5-8.77,10.06a100.22,100.22,0,0,0-.25,26.52c.87,7.73,6.47,11.58,14.87,11.15,6.27-.32,10.61-5,11-12.3C874.38,457,874.2,453.15,874.2,449.33Z" transform="translate(40 36)"/><path class="cls-3" d="M729.7,532.65q0,34.33,0,68.67c0,1.82-.5,2.34-2.25,2.2a45.52,45.52,0,0,0-5.84,0c-1.24.07-1.63-.42-1.48-1.56a8,8,0,0,0,0-1q0-68.57,0-137.13c0-2.84-.25-2.46,2.5-2.48,1.69,0,3.38.11,5,0s2.16.52,2,2.09a26.85,26.85,0,0,0,0,3.11Z" transform="translate(40 36)"/><path class="cls-3" d="M927.7,476.42c-7,7-15.13,8.66-23.48,5-7.53-3.33-11.67-11.29-10.41-20,1.42-9.94,8.11-15.61,18.85-15.88,4.27-.1,8.55-.1,12.83-.05,1.31,0,1.86-.3,1.79-1.71-.11-2.27.05-4.54-.08-6.81-.6-10.71-8.39-13.27-16-11.53a10.23,10.23,0,0,0-8.34,8.9c-.19,1.19-.68,1.65-1.89,1.54a15.75,15.75,0,0,0-3.5,0c-2,.28-2-.7-1.78-2.24,1.59-9.05,7.86-14.7,17.13-15.43,6.29-.49,12,.69,16.49,5.52,3.65,3.92,5,8.77,5,13.93.11,14.13,0,28.26.07,42.39,0,1.34-.35,1.77-1.73,1.76-4.47,0-4.47.05-4.89-4.33C927.83,477.18,927.78,477,927.7,476.42Zm-.45-16.85c0-2.07,0-4.15,0-6.22,0-1-.33-1.36-1.34-1.35-4.47.07-9-.13-13.42.15s-8.78,1.9-10.57,6.62-1.76,9.4,1.71,13.36,8.2,4.54,13,3.88c7-.95,10.56-5.3,10.56-12.36Z" transform="translate(40 36)"/><path class="cls-3" d="M786.59,449.67c.23-4.81-.51-10.53.76-16.18,2.47-10.93,11.06-16,21.55-15.41,7.73.46,13.65,3.73,17,10.92a24.26,24.26,0,0,1,2.23,10.18c.07,7.59.19,15.18,0,22.76-.22,7.84-2.69,14.68-10,18.76-7.67,4.27-22.82,4.08-28.75-7.44a27,27,0,0,1-2.76-12.4C786.57,457.42,786.59,454,786.59,449.67Zm7.42,1c0,4.48,0,9,0,13.42a9.67,9.67,0,0,0,.33,1.91c1.33,6.39,5.76,10.06,12.35,10.23,7.29.18,11.94-3.11,13.59-9.65a22.12,22.12,0,0,0,.61-5.39c0-7.07,0-14.14,0-21.21a23.67,23.67,0,0,0-.41-4.44c-1.34-6.86-5.83-10.46-13.09-10.45s-11.78,3.57-13.08,10.45C793.38,440.53,794.05,445.61,794,450.65Z" transform="translate(40 36)"/><path class="cls-4" d="M1011.72,217.82a28.07,28.07,0,0,1-24.2-15.06c-6.38-11.6-3.08-25.52,7.58-33.67a30.58,30.58,0,0,1,41.4,4.17c11.92,13.71,6.47,35-10.81,42.15C1021.81,217,1017.75,217.83,1011.72,217.82Zm2.13-7a20.49,20.49,0,0,0,7.72-1.3c15-5.2,19.19-23.14,7.92-33.53a23.61,23.61,0,0,0-31.68,0c-5.08,4.72-7.45,10.61-6.22,17.52C993.42,203.76,1002.52,210.82,1013.85,210.82Z" transform="translate(40 36)"/><path class="cls-4" d="M960.79,631.19q-119.19,0-238.38,0c-.71,0-1.8.63-2.13-.59-.18-.63-.29-1.51.91-1.4a11.42,11.42,0,0,0,1.17,0q238.38,0,476.76,0c.73,0,2.12-.81,2.07,1,0,.62-.15,1-.86.94s-1.17,0-1.75,0Z" transform="translate(40 36)"/><path class="cls-3" d="M771.8,428.78q0,19.74,0,39.5A33.28,33.28,0,0,1,770,479.73c-3.18,8.73-10.43,11.4-18,11.63-.73,0-1.12-.17-1.06-.95,0-.07,0-.13,0-.2,0-1.69-.39-3.5.11-5,.66-2,2.9-.93,4.39-1.33,5-1.32,7.84-4.77,8.55-10.78a50.32,50.32,0,0,0,.35-5.62q0-40,0-80c0-1.9.49-2.56,2.36-2.31,1.65.23,3.79-.69,4.86.39s.27,3.09.28,4.7Q771.82,409.51,771.8,428.78Z" transform="translate(40 36)"/><path class="cls-4" d="M958.3,188.57c-11.75,0-20.88-8.72-20.59-19.71.19-7.2,3.83-12.51,10-16.05,8.28-4.74,19.58-3,25.69,3.81,4.9,5.48,6.48,11.8,4.05,18.75-2.49,7.12-7.86,11.17-15.13,12.8A14,14,0,0,1,958.3,188.57Zm-.28-6.95a11.81,11.81,0,0,0,3.84-.48c4.72-1.42,8.12-4.28,9.34-9.19,1.11-4.5-.4-8.28-3.74-11.36a14.32,14.32,0,0,0-19,.18,11.36,11.36,0,0,0-.28,16.88A13.84,13.84,0,0,0,958,181.62Z" transform="translate(40 36)"/><path class="cls-4" d="M985.65,120c8.29,0,14.82,6.17,14.82,14s-6.78,14.11-14.88,14-14.75-6.38-14.71-14.18S977.46,120,985.65,120Zm.08,21c4.21,0,7.89-3.35,7.85-7.08s-3.64-7-7.88-7-8,3.36-7.93,7.19S981.51,141,985.73,141Z" transform="translate(40 36)"/><path class="cls-4" d="M875.66,385.56c0-7.13,5.85-12.53,13.5-12.5a12.8,12.8,0,0,1,13,12.79c0,6.93-6,12.5-13.42,12.45S875.63,392.63,875.66,385.56Zm19.58.09c0-3.16-2.83-5.67-6.38-5.64s-6.39,2.64-6.32,5.75,2.94,5.57,6.32,5.59S895.25,388.77,895.24,385.65Z" transform="translate(40 36)"/><path class="cls-3" d="M905,515.19c-7,0-12.54-5.25-12.55-11.88s5.6-12,12.67-12,12.62,5.39,12.57,12.11C917.66,510,912,515.2,905,515.19Zm.14-17.79c-3.64,0-6.78,2.67-6.79,5.85s3.14,6,6.71,6,6.54-2.63,6.61-5.81C911.75,500.09,908.87,497.44,905.15,497.4Z" transform="translate(40 36)"/><path class="cls-4" d="M1142.29,650.9c.14,7.83,0,15.67,0,23.51,0,1.8-.72,2.31-2.47,1.87-1-.27-.56-1-.56-1.58,0-7.13,0-14.26,0-21.39,0-2.53,0-5.06,0-7.59,0-.58-.52-1.65.66-1.64,1,0,2.28-.65,2.93,1,2.41,6.13,5.19,12.12,7.31,18.37.14.43.31.84.54,1.45,1.4-3.58,2.72-7,4.1-10.44,1.22-3.06,2.62-6.06,3.72-9.16.61-1.72,1.85-1.33,3-1.26,1.32.09.66,1.23.67,1.84,0,9.54,0,19.07,0,28.6,0,.92.32,1.87-1.35,1.84s-1.61-.66-1.59-1.86c.09-7.76-.13-15.53-.08-23.38-.8,2-1.62,4-2.41,6-1.32,3.37-2.65,6.74-3.92,10.12-.38,1-.8,1.55-2,1.56a2,2,0,0,1-2.21-1.62C1146.52,661.7,1144.4,656.3,1142.29,650.9Z" transform="translate(40 36)"/><path class="cls-4" d="M886.14,650.36c.05,8.09-.17,16.1-.08,24.11,0,1.18,0,1.85-1.58,1.87s-1.36-.89-1.36-1.83c0-9.41,0-18.81,0-28.22,0-.75-.67-2,.67-2.22s2.36-.21,3.08,1.43c3.52,8,7.22,15.89,10.86,23.82.07.16.17.32.39.72a20.26,20.26,0,0,0,0-4.29c-.05-6.75-.06-13.49-.16-20.23,0-1.23.37-1.52,1.55-1.54s1.5.43,1.49,1.58c0,9.66,0,19.33-.05,29,0,.58.54,1.65-.64,1.67-1,0-2.2.59-2.93-1-3.47-7.79-7.3-15.43-10.6-23.3C886.54,651.38,886.34,650.87,886.14,650.36Z" transform="translate(40 36)"/><path class="cls-4" d="M804.17,650.49c0,8.27,0,16.17,0,24.07,0,1,.1,1.82-1.44,1.77-1.33,0-1.6-.44-1.59-1.66.06-6.36,0-12.71,0-19.06,0-3.24,0-6.49,0-9.72,0-.64-.54-1.75.73-1.83,1.07-.06,2.21-.42,2.89,1.13,2.12,4.85,4.42,9.63,6.64,14.44,1.51,3.26,3,6.53,4.7,10.24v-5.48c0-6.22,0-12.44-.08-18.66,0-1.09,0-1.75,1.49-1.77,1.65,0,1.38.92,1.38,1.87,0,9.6,0,19.19,0,28.78,0,.56.59,1.63-.67,1.63-1,0-2.13.5-2.78-1-2.19-4.9-4.49-9.75-6.73-14.62C807.25,657.39,805.8,654.1,804.17,650.49Z" transform="translate(40 36)"/><path class="cls-4" d="M826,660.07c0-4.74.06-9.47,0-14.2,0-1.39.24-2,1.78-1.87,2.65.22,5.31-.21,8,.27,4.15.77,6.7,3.38,7,7.63a121.76,121.76,0,0,1,0,16.32c-.32,4.9-3.63,7.89-8.54,8-2.27.07-4.54,0-6.81,0-1.15,0-1.39-.39-1.38-1.45C826,669.92,826,665,826,660.07Zm3,0v9.33c0,4.09,0,4.09,4.18,4.05s6.65-2.2,6.75-6.53c.1-4.54.11-9.08,0-13.61-.12-4.37-2.36-6.41-6.78-6.45a20.13,20.13,0,0,1-2.33,0c-1.39-.17-1.9.23-1.85,1.76C829,652.45,829,656.28,829,660.1Z" transform="translate(40 36)"/><path class="cls-4" d="M732.89,659.43c.17-2.47-.35-5.65.34-8.8,1-4.68,4.22-7.16,9.2-7.12,4.54,0,8,2.72,8.64,7.3a70.9,70.9,0,0,1,0,18.58c-.65,5-4.66,7.82-9.7,7.46s-8.22-3.89-8.47-9.36C732.79,665,732.89,662.58,732.89,659.43Zm3.09.69h0v7.2c0,.19,0,.39,0,.58.39,4.33,3.16,6.61,7.34,6,3-.41,5-2.9,5.08-6.82.12-4.67.07-9.34,0-14a7.43,7.43,0,0,0-1.55-4.71,6.15,6.15,0,0,0-6.71-1.77c-2.43.75-4,2.74-4.13,5.73C735.87,654.93,736,657.53,736,660.12Z" transform="translate(40 36)"/><path class="cls-4" d="M925.53,660.82c-.19,2.41.36,5.59-.32,8.73-1.06,4.84-4.36,7.44-9.28,7.31a8.5,8.5,0,0,1-8.68-8,80.43,80.43,0,0,1-.06-16.85c.58-5.86,4-8.67,9.92-8.5,4.71.14,8.12,3.8,8.39,9.18C925.63,655.14,925.53,657.61,925.53,660.82Zm-3.06-.63c0-2.53.08-5.06,0-7.58-.12-3.1-1.63-5.2-4.09-6-4.5-1.43-8.06,1.19-8.29,6.41-.21,4.72-.07,9.46,0,14.19a9.32,9.32,0,0,0,.49,2.66,5.51,5.51,0,0,0,5.29,4.11c3.92.17,6.42-2.11,6.62-6.22C922.57,665.25,922.47,662.72,922.47,660.19Z" transform="translate(40 36)"/><path class="cls-4" d="M866.42,660.23c0,2.73.19,5.46,0,8.16-.46,5.35-4.08,8.55-9.27,8.47s-8.7-3.38-9-8.62-.26-10.77,0-16.14a8.53,8.53,0,0,1,8.92-8.59c5.45,0,8.85,3,9.31,8.56.22,2.71,0,5.44,0,8.16Zm-2.8-.09c-.2-2.91.28-5.84-.32-8.73-.69-3.36-2.81-5.14-6.09-5.11s-5.62,1.92-5.93,5.26a91.41,91.41,0,0,0,0,17.27c.32,3.34,2.74,5.16,6,5.17s5.37-1.76,6-5.13C863.88,666,863.42,663.05,863.62,660.14Z" transform="translate(40 36)"/><path class="cls-4" d="M1013.05,660.22c0-4.86,0-9.72,0-14.57,0-1.24.26-1.74,1.59-1.65,2.58.18,5.18-.22,7.75.22,4.53.76,7.23,3.55,7.39,8.13.2,5.23.22,10.49,0,15.73-.21,4.92-3.67,8-8.62,8.18-2.2.06-4.41-.06-6.61,0-1.21.06-1.51-.31-1.5-1.5C1013.09,669.94,1013.05,665.08,1013.05,660.22Zm2.86,0v8.56c0,5.27,0,5.27,5.32,4.66a7.48,7.48,0,0,0,.94-.2c2.74-.63,4.39-2.31,4.57-5.06a120.44,120.44,0,0,0,0-16.12,5.2,5.2,0,0,0-4.82-5c-1.53-.2-3.1-.06-4.65-.18-1.19-.09-1.38.47-1.37,1.5C1015.94,652.32,1015.91,656.28,1015.91,660.23Z" transform="translate(40 36)"/><path class="cls-4" d="M756.63,659.36c.19-2.5-.39-5.82.31-9.09,1-4.6,4.34-7,9.23-6.67a8.26,8.26,0,0,1,8,7.82c0,.57.43,1.47-.68,1.4-.81-.05-1.85.6-2.18-1.05-.73-3.71-2.31-5.17-5.33-5.43-3.31-.28-5.85,1.47-6.2,4.76a88.63,88.63,0,0,0,0,17.84c.32,3.22,2.56,4.95,5.67,5,3.44,0,5.54-1.61,6.17-4.92.4-2.06.08-4.14.19-6.21,0-.76-.27-1-1-1-1.36,0-2.72-.06-4.08,0s-1.12-.68-1.15-1.49.07-1.32,1.12-1.28c2.27.07,4.54.05,6.8,0,.82,0,1.15.2,1.13,1.08-.06,2.79.09,5.58-.08,8.36-.31,5.11-3.82,8.25-9,8.22s-8.59-3.31-8.84-8.59C756.53,665.48,756.63,662.81,756.63,659.36Z" transform="translate(40 36)"/><path class="cls-4" d="M1083.67,676.07c-3,.45-3,.45-3.69-2.26-.42-1.62-.44-3.72-1.49-4.68s-3.21-.29-4.89-.31c-5,0-5,0-6.28,4.87-.22.89,0,2.1-1,2.49a3.17,3.17,0,0,1-2.44-.11c-.53-.29.09-1.16.25-1.75q3.72-14.37,7.49-28.73c.23-.87.37-1.88,1.68-1.56.77.19,1.81-.57,2.19.89C1078.17,655.31,1080.93,665.68,1083.67,676.07Zm-10-27.67c-1.38,5.57-2.7,11-4.06,16.33-.3,1.18.12,1.42,1.22,1.38a47.89,47.89,0,0,1,5.62,0c1.54.11,1.52-.56,1.24-1.69C1076.31,659.18,1075,653.92,1073.63,648.4Z" transform="translate(40 36)"/><path class="cls-4" d="M968.31,676.09c-3.08.44-3.08.44-3.79-2.43-1.2-4.85-1.2-4.87-6.08-4.84-1.73,0-3.92-.71-5.07.31s-1,3.1-1.41,4.73c-.64,2.52-.63,2.52-3.72,2.3,1-4,2-7.95,3.08-11.9,1.64-6.24,3.34-12.47,4.92-18.73.29-1.18.73-1.57,1.94-1.54s1.77.22,2.11,1.57C962.89,655.75,965.62,665.91,968.31,676.09Zm-10-27.63c-1.5,6-2.86,11.44-4.22,16.9-.17.67.24.73.76.73,2.26,0,4.52,0,6.78,0,1,0,1-.46.79-1.21C961,659.61,959.73,654.32,958.26,648.46Z" transform="translate(40 36)"/><path class="cls-4" d="M777.21,676.12c2.72-10.34,5.44-20.53,8-30.74.34-1.32,1-1.34,2.07-1.38s1.62.2,1.91,1.32c2.57,10,5.2,19.9,7.81,29.84a7.47,7.47,0,0,1,.12,1c-2.94.37-2.94.37-3.61-2.36-1.21-4.94-1.21-5-6.21-4.93-1.68,0-3.73-.49-4.93.29s-1,3-1.45,4.66C780.3,676.44,780.31,676.44,777.21,676.12Zm14.41-10c-1.46-5.94-2.89-11.73-4.37-17.74-1.38,5.6-2.68,10.93-4,16.24-.25,1-.32,1.57,1,1.52C786.65,666,789,666.09,791.62,666.09Z" transform="translate(40 36)"/><path class="cls-4" d="M1094.25,676.86c-4.87,0-8.13-2.69-8.91-7.44-.11-.66-.53-1.59.72-1.49.8.06,1.89-.65,2.22,1,.81,4.1,3.84,5.92,7.72,4.86s5.23-6.11,2.43-9.29a16.86,16.86,0,0,0-4.17-3.14,36.63,36.63,0,0,1-5.5-3.64,8.31,8.31,0,0,1-2.37-9.83c1.59-3.34,5.35-5,9.54-4.31a8,8,0,0,1,6.38,7.16c.07.58.5,1.49-.65,1.34-.76-.1-1.87.78-2.24-.91-.86-3.92-3.34-5.55-6.81-4.73-4,.94-5.28,5.36-2.46,8.51a16.84,16.84,0,0,0,4.21,3.08,28,28,0,0,1,5.92,4,8.5,8.5,0,0,1,1.93,9.65A8.2,8.2,0,0,1,1094.25,676.86Z" transform="translate(40 36)"/><path class="cls-4" d="M978.69,643.51a7.85,7.85,0,0,1,8.23,6.93c.09.53.73,1.58-.46,1.64-.89,0-2.17.76-2.49-1.12-.6-3.43-2.79-5-6-4.62-1.9.23-3.51,1-4.23,2.92a5.18,5.18,0,0,0,.73,5.31,14.79,14.79,0,0,0,4.43,3.42,35.25,35.25,0,0,1,5.66,3.73,8.63,8.63,0,0,1,2.12,10.42c-1.59,3.45-5.09,5.17-9.39,4.61a8.21,8.21,0,0,1-7.25-7c-.09-.58-.79-1.7.58-1.81,1-.07,2.15-.5,2.41,1.3a5.06,5.06,0,0,0,4.83,4.73c3,.29,5.13-.74,6.14-3a6,6,0,0,0-1.67-7.19c-2.4-2.11-5.39-3.33-7.93-5.22-2.22-1.66-3.85-3.67-4.06-6.54C970,647,973.47,643.51,978.69,643.51Z" transform="translate(40 36)"/><path class="cls-4" d="M1118.4,660.12c0-4.86,0-9.72,0-14.58,0-1.16.28-1.56,1.51-1.54q6.12.12,12.25,0c1.22,0,1.31.51,1.35,1.5s-.37,1.29-1.34,1.27c-3.11,0-6.22,0-9.33,0-1.07,0-1.48.27-1.46,1.41.08,3,.07,6.09,0,9.13,0,1.06.4,1.32,1.37,1.3,2.78,0,5.57,0,8.35,0,1.07,0,1.63.09,1.64,1.42s-.77,1.34-1.71,1.34c-2.66,0-5.32,0-8,0-1.19,0-1.74.2-1.7,1.58.11,3.1.09,6.22,0,9.33,0,1.12.35,1.41,1.43,1.39,3.18-.07,6.35,0,9.53,0,.92,0,1.69-.16,1.72,1.31s-.79,1.43-1.8,1.43c-4.09,0-8.17-.06-12.25,0-1.27,0-1.64-.33-1.62-1.6C1118.44,669.84,1118.4,665,1118.4,660.12Z" transform="translate(40 36)"/><path class="cls-4" d="M1035.88,660.31c0-4.92,0-9.85,0-14.77,0-1.18.31-1.56,1.53-1.54,4,.08,8,.07,12,0,1.2,0,1.52.33,1.55,1.52s-.68,1.25-1.57,1.24c-3.05,0-6.1,0-9.14,0-1,0-1.53.1-1.5,1.32.08,3.11.07,6.22,0,9.33,0,1,.33,1.2,1.23,1.18,2.85,0,5.7,0,8.55,0,1.06,0,1.63.08,1.64,1.42s-.76,1.34-1.71,1.34c-2.72,0-5.45.07-8.17,0-1.36-.06-1.57.47-1.55,1.65.07,3.05.08,6.1,0,9.14,0,1.16.22,1.57,1.47,1.53,3.24-.1,6.48,0,9.72-.05,1,0,1.53.06,1.54,1.3s-.45,1.48-1.58,1.47c-4.15-.07-8.3-.08-12.44,0-1.26,0-1.66-.3-1.64-1.6C1035.93,669.91,1035.88,665.11,1035.88,660.31Z" transform="translate(40 36)"/><path class="cls-4" d="M938.62,671.6q2.63-10.94,5.22-21.83c.38-1.57.83-3.13,1.12-4.72.15-.84.55-1,1.3-1,1.55-.13,2.15,0,1.64,1.94-2.51,9.44-4.84,18.93-7.23,28.4-.29,1.13-.46,2.08-2.15,2-1.47-.07-1.92-.55-2.25-1.9-2.37-9.61-4.84-19.19-7.24-28.79-.13-.5-1-1.51.32-1.57.88,0,2.22-.81,2.62,1,1,4.6,2.19,9.18,3.29,13.78q1.37,5.76,2.72,11.53C938.08,670.81,938,671.32,938.62,671.6Z" transform="translate(40 36)"/><path class="cls-4" d="M1184,661.62c0-4.22-.12-8.44,0-12.65.09-2-.56-2.46-2.37-2.24-1.21.14-2.46,0-3.69,0s-1.11-.55-1.07-1.32-.19-1.45,1-1.44q7.59.06,15.18,0c1.18,0,.94.78,1,1.46s.09,1.31-.93,1.28c-1.42,0-2.86.09-4.27,0s-2,.34-2,1.91c.07,8.69,0,17.38.06,26.07,0,1.31-.39,1.61-1.63,1.61s-1.35-.45-1.34-1.47C1184,670.44,1184,666,1184,661.62Z" transform="translate(40 36)"/><path class="cls-4" d="M727,658.89c0,4.27,0,8.54,0,12.82-.07,4.91-2.58,7.93-6.72,8.22-.58,0-1.48.34-1.35-.75.09-.74-.66-1.82.91-2.1,3-.54,4.08-1.88,4.14-5.1.09-4.79,0-9.58,0-14.37V646c0-1-.28-2,1.45-2s1.56.78,1.55,1.91C727,650.22,727,654.55,727,658.89Z" transform="translate(40 36)"/><path class="cls-4" d="M1006.05,660.12c0,4.86,0,9.72,0,14.58,0,1.29-.36,1.6-1.62,1.62s-1.42-.56-1.42-1.62q0-14.58,0-29.16c0-1.19.3-1.56,1.51-1.56s1.54.36,1.53,1.55C1006,650.39,1006.05,655.26,1006.05,660.12Z" transform="translate(40 36)"/><path class="cls-4" d="M1056.71,660.11c0-4.86,0-9.72,0-14.57,0-1.15.22-1.57,1.47-1.56s1.5.43,1.5,1.58q-.06,14.66,0,29.33c0,1.37-.59,1.37-1.62,1.42s-1.37-.39-1.36-1.44C1056.74,670,1056.71,665,1056.71,660.11Z" transform="translate(40 36)"/><path class="cls-4" d="M1198.33,660.12c0-4.79,0-9.59,0-14.39,0-1.07,0-1.8,1.49-1.76s1.4.63,1.39,1.66c0,9.72,0,19.45,0,29.17,0,1.2-.31,1.49-1.5,1.52-1.36,0-1.41-.57-1.4-1.61C1198.35,669.85,1198.33,665,1198.33,660.12Z" transform="translate(40 36)"/><path class="cls-2" d="M438.45,456.3H389.26a8.6,8.6,0,0,0-8.61,8.6v100a8.62,8.62,0,0,0,8.61,8.61h49.19a8.61,8.61,0,0,0,8.6-8.61v-100A8.6,8.6,0,0,0,438.45,456.3Zm-53.89,15.62h58.59v74.21H384.56Zm4.7-11.72h49.19a4.71,4.71,0,0,1,4.7,4.7V468H384.56V464.9A4.69,4.69,0,0,1,389.26,460.2Zm49.19,109.36H389.26a4.69,4.69,0,0,1-4.7-4.7V550h58.59v14.83A4.7,4.7,0,0,1,438.45,569.56Z" transform="translate(40 36)"/><path class="cls-2" d="M413.42,552.85a7.82,7.82,0,1,0,7.81,7.82A7.83,7.83,0,0,0,413.42,552.85Zm0,11.72a3.91,3.91,0,1,1,3.9-3.9A3.91,3.91,0,0,1,413.42,564.57Z" transform="translate(40 36)"/><path class="cls-2" d="M405.6,466.06h7.82a2,2,0,0,0,0-3.91H405.6a2,2,0,0,0,0,3.91Z" transform="translate(40 36)"/><path class="cls-2" d="M419.27,466.06h2a2,2,0,0,0,0-3.91h-2a2,2,0,0,0,0,3.91Z" transform="translate(40 36)"/><path class="cls-2" d="M465.39,466.09a2,2,0,0,0-2.77,2.76,18.72,18.72,0,0,1,0,26.46,2,2,0,0,0,0,2.76,1.94,1.94,0,0,0,2.77,0A22.65,22.65,0,0,0,465.39,466.09Z" transform="translate(40 36)"/><path class="cls-2" d="M457.16,470.53a2,2,0,1,0-2.76,2.76,12.82,12.82,0,0,1,0,18.12,2,2,0,0,0,2.76,2.76,16.73,16.73,0,0,0,0-23.64Z" transform="translate(40 36)"/><path class="cls-2" d="M364.21,468.85a2,2,0,0,0-2.76-2.76,22.63,22.63,0,0,0,0,32,2,2,0,0,0,2.76-2.76A18.72,18.72,0,0,1,364.21,468.85Z" transform="translate(40 36)"/><path class="cls-2" d="M372.43,470a2,2,0,0,0-2.76,0,16.73,16.73,0,0,0,0,23.64,2,2,0,0,0,2.76-2.76,12.84,12.84,0,0,1,0-18.12A2,2,0,0,0,372.43,470Z" transform="translate(40 36)"/><g id="Page-1"><g id="Layer_2" data-name="Layer 2"><path class="cls-2" d="M1402.89,134.62a3.94,3.94,0,0,0-3.19,0,3.88,3.88,0,0,0-2.09,2.41,54.7,54.7,0,0,0-2.92,17.15h8.07a46.49,46.49,0,0,1,2.48-14.51A4.25,4.25,0,0,0,1402.89,134.62Z" transform="translate(40 36)"/><path class="cls-2" d="M1447.08,110v-8.07a53.86,53.86,0,0,0-24.56,6.12c-1.29.67-2.51,1.48-3.76,2.22a3.92,3.92,0,0,0-1.11,5.72,4.2,4.2,0,0,0,5.47,1.07c1.06-.62,2.09-1.32,3.18-1.88A45.85,45.85,0,0,1,1447.08,110Z" transform="translate(40 36)"/><path class="cls-2" d="M1406,122a4.57,4.57,0,0,0-.9,3.15l.19.75a2.39,2.39,0,0,0,.39.72,2.64,2.64,0,0,0,.48.62,4.53,4.53,0,0,0,.63.51,4.69,4.69,0,0,0,3,.68,4.2,4.2,0,0,0,1.43-.5,4,4,0,0,0,1.92-3.72,4.57,4.57,0,0,0-.44-1.49,4.27,4.27,0,0,0-.91-1.28,4,4,0,0,0-2.93-1A4,4,0,0,0,1406,122Z" transform="translate(40 36)"/><path class="cls-2" d="M1598.47,206.74c-3.48,0-5.94-4.43-2-8a.53.53,0,0,1,.41-.15c26.9,1.42,46.65-32.3,17.44-59.36a4.22,4.22,0,0,0-2.86-1.12h-13.34a4,4,0,0,1-3.8-2.7,38.35,38.35,0,0,0-36.38-25.55c-.4,0-.79,0-1.18,0a4.08,4.08,0,0,1-4-2.59,52.45,52.45,0,0,0-98.06.11,4,4,0,0,1-4.18,2.59,32.51,32.51,0,0,0-3.27-.14c-3.47,0-5.92-4.39-2.11-7.92a.59.59,0,0,1,.4-.15c.92,0,1.84,0,2.73,0a60.52,60.52,0,0,1,110.95,0,46.48,46.48,0,0,1,41.74,28.31,38.34,38.34,0,0,1-2.39,76.6Z" transform="translate(40 36)"/><path class="cls-2" d="M1433.92,205a4.12,4.12,0,0,1-1.1-.16,52.58,52.58,0,0,1-38.13-50.45,4,4,0,0,1,8.07,0A44.5,44.5,0,0,0,1435,197.09a4,4,0,0,1-1.09,7.92Z" transform="translate(40 36)"/><path class="cls-2" d="M1455.35,206.94h145.18a4.26,4.26,0,0,0,4.25-4.26h0a4.26,4.26,0,0,0-4.25-4.25H1455.35a4.26,4.26,0,0,0-4.25,4.25h0A4.26,4.26,0,0,0,1455.35,206.94Z" transform="translate(40 36)"/></g></g><g id="Page-1-2" data-name="Page-1"><g id="Icons_copy" data-name="Icons copy"><path class="cls-3" d="M1766.88,339a10.09,10.09,0,0,1-10.08,10.11,9.26,9.26,0,0,1-3.37-.61,10.07,10.07,0,0,1,0-19,9.25,9.25,0,0,1,3.37-.6A10.07,10.07,0,0,1,1766.88,339Z" transform="translate(40 36)"/><path class="cls-3" d="M1820.81,339a10.09,10.09,0,0,1-10.07,10.11,9.28,9.28,0,0,1-3.38-.61,10.07,10.07,0,0,1,0-19,9.27,9.27,0,0,1,3.38-.6A10.07,10.07,0,0,1,1820.81,339Z" transform="translate(40 36)"/><circle id="Oval" class="cls-3" cx="1874.33" cy="354.75" r="3.37"/><circle class="cls-3" cx="1874.33" cy="334.53" r="3.37"/><circle class="cls-3" cx="1884.44" cy="344.64" r="3.37"/><circle class="cls-3" cx="1864.22" cy="344.64" r="3.37"/><path class="cls-3" d="M1730,318.62v-3.1a3.44,3.44,0,0,1,3.14-3.48,3.35,3.35,0,0,1,3.57,3.35v3.36a3.36,3.36,0,0,1-3.57,3.35A3.44,3.44,0,0,1,1730,318.62Z" transform="translate(40 36)"/><path class="cls-3" d="M1743.31,312h-3.23a3.44,3.44,0,0,1-3.48-3.15,3.35,3.35,0,0,1,3.35-3.56h3.23a3.44,3.44,0,0,1,3.48,3.14A3.36,3.36,0,0,1,1743.31,312Z" transform="translate(40 36)"/><path class="cls-3" d="M1726.46,312h-3.23a3.44,3.44,0,0,1-3.48-3.15,3.35,3.35,0,0,1,3.35-3.56h3.23a3.44,3.44,0,0,1,3.48,3.14A3.36,3.36,0,0,1,1726.46,312Z" transform="translate(40 36)"/></g><g id="Layer_2-2" data-name="Layer 2"><path class="cls-2" d="M1847.82,379.17c-14.61,0-23.12-21.86-26.9-34.89a3.36,3.36,0,0,1,6.45-1.87c5.45,18.81,13.09,30,20.45,30,10,0,12.42-11.06,13-17.65a99.25,99.25,0,0,0-2.21-26.46l-.8-4.17c-1.35-7.07-2.74-14.38-4.75-21.3-.68-2.36-1.43-4.59-2.28-6.84-3-7.72-6.44-11.86-11.17-13.43-5.77-1.9-11.88,0-17.62,2.31a3.4,3.4,0,0,1-1.26.24h-72.4a3.14,3.14,0,0,1-1.25-.25c-4.38-1.76-12.69-4.41-19.1-2.3-4.72,1.56-8.17,5.71-11.17,13.45-.85,2.23-1.59,4.46-2.27,6.81-2,6.93-3.41,14.24-4.75,21.31l-.81,4.18a99.59,99.59,0,0,0-2.2,26.45c.54,6.59,3,17.65,13,17.65,7.35,0,15-11.23,20.44-30a3.36,3.36,0,0,1,6.45,1.87c-3.77,13-12.28,34.89-26.89,34.89-11.08,0-18.43-8.91-19.66-23.82a105.36,105.36,0,0,1,2.3-28.28l.8-4.16c1.38-7.22,2.8-14.69,4.9-21.92.73-2.52,1.53-4.92,2.45-7.34,2.36-6.1,6.52-14.51,15.34-17.42,7.77-2.56,16.73-.28,23.09,2.2h71.12a31.49,31.49,0,0,1,21.62-2.2c8.83,2.91,13,11.32,15.34,17.39.92,2.45,1.73,4.85,2.46,7.38,2.1,7.22,3.52,14.69,4.9,21.91l.79,4.16a105.37,105.37,0,0,1,2.31,28.28c-1.23,14.91-8.58,23.82-19.66,23.82Z" transform="translate(40 36)"/><path class="cls-2" d="M1797.2,342.43h-26.77a3.45,3.45,0,0,1-3.48-3.15,3.36,3.36,0,0,1,3.35-3.57h26.77a3.45,3.45,0,0,1,3.48,3.15A3.36,3.36,0,0,1,1797.2,342.43Z" transform="translate(40 36)"/><path class="cls-2" d="M1756.78,355.83A16.85,16.85,0,1,1,1773.62,339,16.85,16.85,0,0,1,1756.78,355.83Zm0-27a10.11,10.11,0,1,0,10.1,10.11A10.1,10.1,0,0,0,1756.78,328.87Z" transform="translate(40 36)"/><path class="cls-2" d="M1810.72,355.83A16.85,16.85,0,1,1,1827.56,339,16.83,16.83,0,0,1,1810.72,355.83Zm0-27a10.11,10.11,0,1,0,10.1,10.11,10.11,10.11,0,0,0-10.1-10.11Z" transform="translate(40 36)"/><path class="cls-2" d="M1773.64,312h-6.59a3.43,3.43,0,0,1-3.47-3.15,3.35,3.35,0,0,1,3.35-3.56h6.58a3.44,3.44,0,0,1,3.48,3.14A3.35,3.35,0,0,1,1773.64,312Z" transform="translate(40 36)"/><path class="cls-2" d="M1800.61,312H1794a3.44,3.44,0,0,1-3.48-3.15,3.35,3.35,0,0,1,3.35-3.56h6.59a3.44,3.44,0,0,1,3.48,3.14A3.36,3.36,0,0,1,1800.61,312Z" transform="translate(40 36)"/><path class="cls-2" d="M1730,301.76v-3.1a3.44,3.44,0,0,1,3.14-3.48,3.36,3.36,0,0,1,3.57,3.35v3.36a3.35,3.35,0,0,1-3.57,3.35A3.44,3.44,0,0,1,1730,301.76Z" transform="translate(40 36)"/></g></g><path class="cls-2" d="M1581.83,722.44a10,10,0,0,0-6,2l-32.92-32.81c7.41-8.28,12.56-30.55,12.56-30.55h13.7s4.81,8.23,9.82,8.23a9.78,9.78,0,1,0-9-14h-14.61a49.13,49.13,0,0,0-13-29.94l33.09-33.83a9.7,9.7,0,1,0-3.66-7.51,9.51,9.51,0,0,0,.44,2.73l-33.91,34.67a51,51,0,0,0-28.91-12.36V592.89a9.86,9.86,0,1,0-14.48-8.8,9.83,9.83,0,0,0,8.65,9.64V609a51.14,51.14,0,0,0-31.79,11.89l-32.21-32.1a9.52,9.52,0,0,0,1.27-4.67,10,10,0,1,0-5.32,8.6l32.16,32c-7.78,8.14-13.62,30.64-13.62,30.64h-14.22s-5-5.6-9-5.6a9.78,9.78,0,1,0,9.82,11.33h13.31a49.2,49.2,0,0,0,14.07,32.18v0l-30.79,31.47a9.7,9.7,0,1,0,3.56,7.43,9.66,9.66,0,0,0-.4-2.59l31.79-32.51a51.19,51.19,0,0,0,31.34,11.49v14a9.77,9.77,0,1,0,11.28,9.64,10,10,0,0,0-5.45-8.8v-15a50.94,50.94,0,0,0,29.42-12.82l33.54,33.42a9.53,9.53,0,0,0-.58,3.17,10,10,0,1,0,10-9.78Zm-72.75-39.23a46.27,46.27,0,0,1,10.26,2.24c-2.68,8-6.41,13.59-10.26,15.85Zm0-5.45V661.1h14.18a89.55,89.55,0,0,1-2.36,19.13A50.73,50.73,0,0,0,1509.08,677.76Zm0-22.39V640a51.78,51.78,0,0,0,11.82-2.47,88.32,88.32,0,0,1,2.33,17.85Zm0-21v-18.1c3.85,2.27,7.58,7.85,10.26,15.86A45.59,45.59,0,0,1,1509.08,634.37Zm8.56-18a45.38,45.38,0,0,1,15.7,8.18,45.69,45.69,0,0,1-8.55,5.45A44,44,0,0,0,1517.64,616.36Zm-14-.91v19.08a46,46,0,0,1-12.25-2C1494.52,623.05,1499.11,616.85,1503.66,615.45ZM1486,630.53a44.93,44.93,0,0,1-9.78-6,45.35,45.35,0,0,1,17.49-8.64A44,44,0,0,0,1486,630.53Zm17.68,9.6v15.24h-16A89,89,0,0,1,1489.9,638,51.76,51.76,0,0,0,1503.66,640.13Zm0,21v16.51a51.36,51.36,0,0,0-13.76,2.15,89.28,89.28,0,0,1-2.25-18.66Zm0,21.95v19.08c-4.56-1.4-9.15-7.61-12.25-17.13A45.92,45.92,0,0,1,1503.66,683.05Zm-10,18.62a45.21,45.21,0,0,1-17.5-8.65,45.15,45.15,0,0,1,9.79-6A44,44,0,0,0,1493.69,701.67Zm31.11-14.08a44.6,44.6,0,0,1,8.53,5.46,45.48,45.48,0,0,1-15.69,8.17A44.37,44.37,0,0,0,1524.8,687.59Zm12.7,1.75a51,51,0,0,0-11.08-7,94.82,94.82,0,0,0,2.7-21.23h20.66A43.67,43.67,0,0,1,1537.5,689.34Zm41.49-34a4.19,4.19,0,1,1-4.27,4.19A4.24,4.24,0,0,1,1579,655.36Zm-49.9,0a93.8,93.8,0,0,0-2.67-20,51,51,0,0,0,11.08-7,43.7,43.7,0,0,1,12.21,27Zm52.74-75.47a4.19,4.19,0,1,1-4.27,4.19A4.23,4.23,0,0,1,1581.83,579.9Zm-81.12,4.19a4.27,4.27,0,1,1,4.26,4.19A4.23,4.23,0,0,1,1500.71,584.09Zm-74,0a4.27,4.27,0,1,1,4.27,4.19A4.24,4.24,0,0,1,1426.69,584.09Zm45.36,44.32a50.72,50.72,0,0,0,12.37,7.58,93.82,93.82,0,0,0-2.54,19.38h-22A43.66,43.66,0,0,1,1472.05,628.41ZM1431,663.74a4.19,4.19,0,1,1,4.27-4.19A4.24,4.24,0,0,1,1431,663.74Zm50.89-2.64a95.07,95.07,0,0,0,2.57,20.64,50.78,50.78,0,0,0-12.38,7.58,43.67,43.67,0,0,1-12.26-28.22ZM1431,736.41a4.2,4.2,0,1,1,3.65-6.34h0a4,4,0,0,1,.62,2.14A4.23,4.23,0,0,1,1431,736.41Zm74,0a4.2,4.2,0,1,1,4.27-4.19A4.23,4.23,0,0,1,1505,736.41Zm76.86,0a4.2,4.2,0,1,1,4.27-4.19A4.24,4.24,0,0,1,1581.83,736.41Z" transform="translate(40 36)"/><circle id="Oval-2" data-name="Oval" class="cls-2" cx="1853.04" cy="647.77" r="2.23"/><circle class="cls-2" cx="1764.01" cy="647.77" r="2.23"/><circle class="cls-2" cx="1861.95" cy="647.77" r="2.23"/><circle class="cls-2" cx="1870.85" cy="647.77" r="2.23"/><g id="Layer_2-3" data-name="Layer 2"><path class="cls-2" d="M1836.32,631.26H1720.57a8.93,8.93,0,0,1-8.9-8.93V600a8.93,8.93,0,0,1,8.9-8.93h115.75a8.93,8.93,0,0,1,8.9,8.93v22.31A8.93,8.93,0,0,1,1836.32,631.26Zm-115.76-35.47a4.44,4.44,0,0,0-4.45,4.43v22.17a4.45,4.45,0,0,0,4.45,4.44h115.77a4.45,4.45,0,0,0,4.45-4.44V600.22a4.44,4.44,0,0,0-4.45-4.43Z" transform="translate(40 36)"/><path class="cls-2" d="M1749.6,640.13h-20a6.66,6.66,0,0,1-6.67-6.65v-4.43a2.21,2.21,0,0,1,2.22-2.22h28.94a2.21,2.21,0,0,1,2.22,2.22v4.43A6.66,6.66,0,0,1,1749.6,640.13Zm-22.28-8.87v2.22a2.24,2.24,0,0,0,2.23,2.22h20.06a2.24,2.24,0,0,0,2.23-2.22v-2.22Z" transform="translate(40 36)"/><path class="cls-2" d="M1827.33,640.13h-20a6.66,6.66,0,0,1-6.67-6.65v-4.43a2.21,2.21,0,0,1,2.22-2.22h28.94a2.21,2.21,0,0,1,2.22,2.22v4.43A6.66,6.66,0,0,1,1827.33,640.13Zm-22.28-8.87v2.22a2.24,2.24,0,0,0,2.23,2.22h20.06a2.24,2.24,0,0,0,2.23-2.22v-2.22Z" transform="translate(40 36)"/><path class="cls-2" d="M1843,620.05H1713.9a2.23,2.23,0,0,1-2.23-2.23V604.53a2.23,2.23,0,0,1,2.23-2.22H1843a2.23,2.23,0,0,1,2.23,2.22v13.29A2.23,2.23,0,0,1,1843,620.05Zm-126.88-4.44h124.67v-8.87H1716.11Z" transform="translate(40 36)"/><path class="cls-2" d="M1736.05,595.53h-13.28a2.23,2.23,0,0,1-2.23-2.23V573.36a4.44,4.44,0,0,1,4.43-4.44h8.87a4.45,4.45,0,0,1,4.44,4.44V593.3A2.23,2.23,0,0,1,1736.05,595.53ZM1725,591.09h8.87V573.36H1725Z" transform="translate(40 36)"/><path class="cls-2" d="M1725.1,560.14a2.22,2.22,0,0,0-2.21,2.23v8.9h4.43v-8.9A2.22,2.22,0,0,0,1725.1,560.14Z" transform="translate(40 36)"/><path class="cls-2" d="M1727.32,513.36h-4.43v31.1a2.27,2.27,0,0,0,1.89,2.27,2.23,2.23,0,0,0,2.54-2.21Z" transform="translate(40 36)"/><path class="cls-2" d="M1722.83,553.38a2.38,2.38,0,0,0,.64,1.58l.34.27a1.87,1.87,0,0,0,.4.2,1.34,1.34,0,0,0,.4.13,3.49,3.49,0,0,0,.44.05,2.36,2.36,0,0,0,1.59-.65,2.2,2.2,0,0,0-.74-3.63,2.44,2.44,0,0,0-.85-.18,2.2,2.2,0,0,0-2.22,2.23Z" transform="translate(40 36)"/><path class="cls-2" d="M1734,573.36h-8.79a2.27,2.27,0,0,1-2.27-1.9,2.22,2.22,0,0,1,2.19-2.54h6.66V513.57a2.26,2.26,0,0,0-1.93-2.27,2.21,2.21,0,0,0-2.51,2.14,2.25,2.25,0,0,1-1.58,2.18,2.21,2.21,0,0,1-2.85-2.13,6.65,6.65,0,1,1,13.3.17v57.48A2.22,2.22,0,0,1,1734,573.36Z" transform="translate(40 36)"/><path class="cls-2" d="M1834.12,595.53h-13.28a2.23,2.23,0,0,1-2.23-2.23V573.36a4.45,4.45,0,0,1,4.44-4.44h8.87a4.44,4.44,0,0,1,4.43,4.44V593.3A2.23,2.23,0,0,1,1834.12,595.53Zm-11.07-4.44h8.87V573.36h-8.87Z" transform="translate(40 36)"/><path class="cls-2" d="M1831.78,573.36h-8.85a2.23,2.23,0,0,1-2.23-2.23V513.42a6.65,6.65,0,1,1,13.3-.16v57.87A2.22,2.22,0,0,1,1831.78,573.36Zm-6.65-4.44h4.44V513.34a2.27,2.27,0,0,0-1.9-2.27,2.23,2.23,0,0,0-2.54,2.21Z" transform="translate(40 36)"/><path class="cls-3" d="M1802.18,550.36a1.48,1.48,0,0,1-1.37-.92,24.19,24.19,0,0,0-44.68,0,1.48,1.48,0,0,1-2.57.36,1.48,1.48,0,0,1-.17-1.49,27.15,27.15,0,0,1,50.16,0,1.47,1.47,0,0,1-.14,1.39,1.48,1.48,0,0,1-1.23.66Z" transform="translate(40 36)"/><path class="cls-3" d="M1793.56,553.45a1.48,1.48,0,0,1-1.37-.91,14.85,14.85,0,0,0-27.43,0,1.48,1.48,0,0,1-2.74-1.14,17.81,17.81,0,0,1,32.9,0,1.43,1.43,0,0,1,.09.89,1.49,1.49,0,0,1-1.45,1.18Z" transform="translate(40 36)"/><path class="cls-3" d="M1784.88,556.71a1.48,1.48,0,0,1-1.37-.9,5.51,5.51,0,0,0-10.19,0,1.46,1.46,0,0,1-1.18.92,1.48,1.48,0,0,1-1.38-.58,1.52,1.52,0,0,1-.17-1.5,8.48,8.48,0,0,1,15.65,0,1.51,1.51,0,0,1-.13,1.4,1.48,1.48,0,0,1-1.23.66Z" transform="translate(40 36)"/><path class="cls-3" d="M1778.47,556.71a1.49,1.49,0,1,1-1.48,1.49A1.49,1.49,0,0,1,1778.47,556.71Z" transform="translate(40 36)"/></g><path class="cls-2" d="M1365.19,436.5V415.44l4.24-3h6.8v-4h-7.92l-6.79,4.88V436.5a6,6,0,0,0-3.66,6.15,5.77,5.77,0,0,0,4.85,5.31,5.68,5.68,0,0,0,6.16-5.89A5.9,5.9,0,0,0,1365.19,436.5Zm-1.84,7.44a2,2,0,1,1,1.84-2A1.91,1.91,0,0,1,1363.35,443.94Z" transform="translate(40 36)"/><path class="cls-2" d="M1366.69,404.5h9.54v-4h-9.54a5.5,5.5,0,0,0-5.72-3.93,6,6,0,0,0,.55,11.84A5.55,5.55,0,0,0,1366.69,404.5Zm-7-2.09a1.84,1.84,0,1,1,1.84,2A1.91,1.91,0,0,1,1359.68,402.41Z" transform="translate(40 36)"/><path class="cls-2" d="M1361,392.6a5.49,5.49,0,0,0,5.72-3.92h9.54v-4h-9.54a5.54,5.54,0,0,0-5.17-4,6,6,0,0,0-.55,11.83Zm.55-8a2,2,0,1,1-1.84,2A1.91,1.91,0,0,1,1361.52,384.61Z" transform="translate(40 36)"/><rect class="cls-2" x="1408.87" y="428.63" width="7.35" height="3.95"/><rect class="cls-2" x="1408.87" y="412.81" width="7.35" height="3.95"/><rect class="cls-2" x="1396" y="404.9" width="20.23" height="3.95"/><path class="cls-2" d="M1370,365h6.28v-4h-4.76l-4.44-4.77v-3.5a5.94,5.94,0,0,0,3.65-6.16,5.76,5.76,0,0,0-4.84-5.3,5.68,5.68,0,0,0-6.16,5.89,5.92,5.92,0,0,0,3.67,5.57v5.13Zm-4.76-19.89a2,2,0,1,1-1.84,2A1.91,1.91,0,0,1,1365.19,345.06Z" transform="translate(40 36)"/><polygon class="cls-2" points="1429.1 378.04 1429.1 383.15 1432.77 383.15 1432.77 376.4 1426.18 369.31 1396 369.31 1396 373.26 1424.66 373.26 1429.1 378.04"/><polygon class="cls-2" points="1436.45 370.13 1436.45 383.15 1440.13 383.15 1440.13 368.49 1433.54 361.4 1396 361.4 1396 365.35 1432.01 365.35 1436.45 370.13"/><rect class="cls-2" x="1443.81" y="375.24" width="3.68" height="7.91"/><rect class="cls-2" x="1465.87" y="361.4" width="3.68" height="21.75"/><path class="cls-2" d="M1411.16,336.9v10.25h3.68v-7.09l3.68,3.95v3.14h3.67v-4.77l-5.88-6.33a6.08,6.08,0,0,0,2.16-5.46,5.51,5.51,0,1,0-11,.74A5.91,5.91,0,0,0,1411.16,336.9Zm1.84-7.66a2,2,0,1,1-1.84,2A1.92,1.92,0,0,1,1413,329.24Z" transform="translate(40 36)"/><path class="cls-2" d="M1436.9,338.08l4.44-4.77h18a5.73,5.73,0,0,0,3.34,3.59v27.23l-4.44,4.77h-8.44v4h10l6.59-7.1V336.9a5.94,5.94,0,0,0,3.65-6.16,5.74,5.74,0,0,0-4.94-5.31,5.48,5.48,0,0,0-5.72,3.92h-19.49l-6.59,7.09v10.71h3.67Zm27.58-8.84a2,2,0,1,1-1.83,2A1.91,1.91,0,0,1,1464.48,329.24Z" transform="translate(40 36)"/><path class="cls-2" d="M1451.17,349.47l4.12,4.43v2.32l-4.44,4.77h-1.08v4h2.6l6.6-7.1v-5.59l-6.6-7.09h-1.1a5.48,5.48,0,0,0-5.72-3.92,5.73,5.73,0,0,0-4.93,5.21,5.79,5.79,0,0,0,5.48,6.62A5.53,5.53,0,0,0,1451.17,349.47Zm-5.07-.45a2,2,0,1,1,1.84-2A1.91,1.91,0,0,1,1446.1,349Z" transform="translate(40 36)"/><rect class="cls-2" x="1489.77" y="412.81" width="20.23" height="3.95"/><path class="cls-2" d="M1466.32,436.5V391.81l-6.59-7.09h-10v4h8.44l4.44,4.77v10.23l-2.92-3.14h-10v4h8.44l4.44,4.77V436.5a6,6,0,0,0-3.66,6.15,5.77,5.77,0,0,0,4.85,5.31,5.68,5.68,0,0,0,6.16-5.89A5.9,5.9,0,0,0,1466.32,436.5Zm-1.84,7.44a2,2,0,1,1,1.84-2A1.91,1.91,0,0,1,1464.48,443.94Z" transform="translate(40 36)"/><rect class="cls-2" x="1489.77" y="428.63" width="7.35" height="3.95"/><path class="cls-2" d="M1459,415.54l-6.6-7.09h-2.6v4h1.08l4.44,4.77v11.05H1436.9v-2h-3.67v5.93h22.06v3.14l-4.44,4.77h-3.25a5.52,5.52,0,0,0-5.73-3.93,6,6,0,0,0,.55,11.84,5.56,5.56,0,0,0,5.18-3.95h4.77l6.6-7.1Zm-16.55,28.4a2,2,0,1,1,1.84-2A1.91,1.91,0,0,1,1442.42,443.94Z" transform="translate(40 36)"/><path class="cls-2" d="M1392.77,426.25h-3.67v2h-9.54a5.49,5.49,0,0,0-5.72-3.93,6,6,0,0,0,.55,11.84,5.55,5.55,0,0,0,5.17-4h13.21Zm-18.38,5.82a2,2,0,1,1,1.84-2A1.91,1.91,0,0,1,1374.39,432.07Z" transform="translate(40 36)"/><rect class="cls-2" x="1465.87" y="462.25" width="3.68" height="21.75"/><rect class="cls-2" x="1458.52" y="462.25" width="3.68" height="21.75"/><path class="cls-2" d="M1411.16,429.38l-3.68,4v-7.09h-3.67V436.5a5.93,5.93,0,0,0-3.65,6.15A5.75,5.75,0,0,0,1405,448a5.68,5.68,0,0,0,6.16-5.89,6,6,0,0,0-2.21-4.72l5.89-6.33v-4.77h-3.68Zm-5.51,14.56a2,2,0,1,1,1.83-2A1.91,1.91,0,0,1,1405.65,443.94Z" transform="translate(40 36)"/><polygon class="cls-2" points="1440.13 462.25 1436.45 462.25 1436.45 467.36 1430.93 473.29 1430.93 484 1434.61 484 1434.61 474.93 1440.13 469 1440.13 462.25"/><path class="cls-2" d="M1433.23,422.29h3.67v-4h5.52v-5.93h3.68v-4h-3.68V404.5h3.68v-4h-3.68v-4h3.68v-4h-3.68v-3.95h3.68v-4h-3.68v-4h3.68v-4h-3.68v-3.95h3.68v-4h-3.68V365h3.68v-4h-3.68v-5.93h-5.52v-4h-3.67v4h-3.68v-4h-3.68v4h-3.68v-4h-3.67v4h-3.68v-4h-3.68v4h-3.68v-4h-3.67v4h-3.68v-4h-3.68v4h-3.68v-4h-3.67v4h-.76l-4.76,5.11V361h-3.68v4h3.68v3.95h-3.68v4h3.68v3.95h-3.68v4h3.68v4h-3.68v4h3.68v3.95h-3.68v4h3.68v4h-3.68v4h3.68v3.95h-3.68v4h3.68v5.93h5.52v4h3.67v-4h3.68v4h3.68v-4h3.68v4h3.67v-4h3.68v4h3.68v-4h3.68v4h3.67v-4h3.68v4h3.68v-4h3.68Zm-46-7.91V361.81l2.6-2.8h48.88v55.37Z" transform="translate(40 36)"/><path class="cls-3" d="M1429.29,377.56l3.21-3.45-7.8-8.38-3.21,3.45a16.76,16.76,0,0,0-3-1.33V363h-11v4.88a16.76,16.76,0,0,0-3,1.33l-3.21-3.45-7.8,8.38,3.21,3.45a20.1,20.1,0,0,0-1.24,3.21h-4.53v11.86h4.53a19.63,19.63,0,0,0,1.24,3.2l-3.21,3.45,7.8,8.39,3.21-3.45a17.51,17.51,0,0,0,3,1.33v4.88h11v-4.88a17.51,17.51,0,0,0,3-1.33l3.21,3.45,7.8-8.39-3.21-3.45a19.63,19.63,0,0,0,1.24-3.2h4.53V380.77h-4.53A20.1,20.1,0,0,0,1429.29,377.56Zm2.1,11.12h-3.73l-.33,1.53a16.13,16.13,0,0,1-1.89,4.9l-.78,1.33,2.64,2.84-2.6,2.8-2.64-2.84-1.24.84a14.07,14.07,0,0,1-4.55,2l-1.43.35v4h-3.68v-4l-1.43-.35a14.07,14.07,0,0,1-4.55-2l-1.24-.84-2.64,2.84-2.6-2.8,2.64-2.84-.78-1.33a16.13,16.13,0,0,1-1.89-4.9l-.33-1.53h-3.73v-4h3.73l.33-1.54a16.08,16.08,0,0,1,1.89-4.89l.78-1.34-2.64-2.84,2.6-2.79,2.64,2.84,1.24-.85a14.28,14.28,0,0,1,4.55-2l1.43-.35v-4h3.68v4l1.43.35a14.28,14.28,0,0,1,4.55,2l1.24.85,2.64-2.84,2.6,2.79-2.64,2.85.78,1.33a16.08,16.08,0,0,1,1.89,4.89l.33,1.54h3.73Z" transform="translate(40 36)"/><path class="cls-3" d="M1413,376.7c-5.07,0-9.19,4.44-9.19,9.89s4.12,9.89,9.19,9.89,9.19-4.44,9.19-9.89S1418.07,376.7,1413,376.7Zm0,15.82a5.95,5.95,0,1,1,5.52-5.93A5.74,5.74,0,0,1,1413,392.52Z" transform="translate(40 36)"/><path class="cls-2" d="M207.33,634.62A13.36,13.36,0,1,0,220.68,648,13.38,13.38,0,0,0,207.33,634.62Zm0,24h0A10.62,10.62,0,1,1,218,648,10.63,10.63,0,0,1,207.33,658.6Z" transform="translate(40 36)"/><rect class="cls-2" x="211.32" y="755.59" width="4.24" height="6.9"/><path class="cls-2" d="M161.71,693.49h0a32.39,32.39,0,0,1-5.92-57.29l-2.27-3.59a36.65,36.65,0,0,0-11,50.23,36.9,36.9,0,0,0,17.67,14.6,17.59,17.59,0,0,1,11.22,15.79h4.24A21.79,21.79,0,0,0,161.71,693.49Z" transform="translate(40 36)"/><path class="cls-2" d="M250.68,643.93l-10.34-1.48a3.2,3.2,0,0,1-2.71-3.61,3.15,3.15,0,0,1,1.25-2.1l8.35-6.27a2.12,2.12,0,0,0,.43-3l-9.57-12.76a2.12,2.12,0,0,0-3-.43l-8.36,6.27a3.19,3.19,0,0,1-5.08-3l1.48-10.34a2.14,2.14,0,0,0-1.8-2.41l-15.78-2.25a2.12,2.12,0,0,0-2.41,1.8v.16l-1.48,10.4a3.18,3.18,0,0,1-5.7,1.46l-6.25-8.34a2.13,2.13,0,0,0-1.4-.83,2.16,2.16,0,0,0-1.57.4l-8.13,6.12-.21,0a50.64,50.64,0,0,0-10.73,0,50.12,50.12,0,0,0-43.94,44.75c-.06.6-.09,1.19-.12,1.79l0,.93h-1.3a2.14,2.14,0,0,0-2.08,1.7l-2,9.51-8-5.53a2.12,2.12,0,0,0-2.7.25l-8,8a2.12,2.12,0,0,0-.24,2.7l5.49,8-9.5,2a2.13,2.13,0,0,0-1.66,2.07v10.62a2.14,2.14,0,0,0,1.68,2.08l9.5,2-5.49,8a2.11,2.11,0,0,0,.25,2.7l8,8a2.12,2.12,0,0,0,2.7.25l8-5.51,2,9.5a2.12,2.12,0,0,0,2.07,1.7h10.62a2.13,2.13,0,0,0,2.08-1.68l2-9.51,8,5.5a2.14,2.14,0,0,0,2.71-.25l5-5.05V727a10.07,10.07,0,0,0,5,8.68l.27.16v15.06A10.09,10.09,0,0,0,168.13,761h10.62a10.1,10.1,0,0,0,10.09-10.09v-15l.26-.16a10.07,10.07,0,0,0,5.05-8.68v-10.5a13.46,13.46,0,0,1,6.39-11.29,50,50,0,0,0,5.77-4.37l-2.83-3.16a45.29,45.29,0,0,1-5.26,4,17.71,17.71,0,0,0-8.32,14.85V727a5.86,5.86,0,0,1-5.84,5.85H162.82A5.86,5.86,0,0,1,157,727V716.25a17.31,17.31,0,0,0-8.17-14.58,45.8,45.8,0,0,1-14.33-63,45.25,45.25,0,0,1,38.39-21.37h.8l-.31.75a1.55,1.55,0,0,0-.08.23,2.16,2.16,0,0,0,.42,1.5l6.26,8.37a3.2,3.2,0,0,1-3,5.09l-10.33-1.48a2.11,2.11,0,0,0-1.57.4,2.13,2.13,0,0,0-.83,1.4L162,649.41a2.13,2.13,0,0,0,1.8,2.41l10.33,1.48a3.2,3.2,0,0,1,1.46,5.72l-8.35,6.28a2.14,2.14,0,0,0-.43,3l9.57,12.79a2.12,2.12,0,0,0,3,.43l8.35-6.28a3.19,3.19,0,0,1,5.06,3l-1.47,10.36a2.13,2.13,0,0,0,1.8,2.41v0l15.67,2.23a.51.51,0,0,0,.3,0,2.12,2.12,0,0,0,2.1-1.82l1.48-10.34a3.2,3.2,0,0,1,1.45-2.25,3.18,3.18,0,0,1,4.3.85L224.6,688a2.12,2.12,0,0,0,3,.43l12.76-9.57a2.11,2.11,0,0,0,.42-3l-6.26-8.36a3.17,3.17,0,0,1-.19-3.55,3.12,3.12,0,0,1,3.2-1.52l10.33,1.47a2.13,2.13,0,0,0,2.4-1.8l2.26-15.79A2.13,2.13,0,0,0,250.68,643.93Zm-88.39,93.18h22.3v6.37h-22.3Zm0,10.62h22.3v3.18a5.85,5.85,0,0,1-5.84,5.85H168.13a5.85,5.85,0,0,1-5.84-5.85Zm-20.74-46.08.51.42a52.43,52.43,0,0,0,4.49,3.27,13.51,13.51,0,0,1,5.57,7.07l.1.31L146,719l-5.88-4.05a4.79,4.79,0,0,0-6.64,1.22,4.83,4.83,0,0,0-.74,1.73l-1.48,7h-7.18l-1.48-7a4.76,4.76,0,0,0-5.65-3.69,4.68,4.68,0,0,0-1.73.74l-5.88,4-5.47-5.45,4.05-5.88a4.76,4.76,0,0,0,.67-4,4.82,4.82,0,0,0-2.71-3.09,4.66,4.66,0,0,0-1-.29l-7-1.48v-7.17l7-1.48a4.78,4.78,0,0,0,3-7.37l-4.06-5.9,5.47-5.45,5.88,4a4.78,4.78,0,0,0,4,.66,4.82,4.82,0,0,0,3.08-2.71,4.47,4.47,0,0,0,.29-1l1.09-5.15.42,3a50.35,50.35,0,0,0,2.08,8.91l.21.62-.65.07a15.4,15.4,0,1,0,15.51,22.33ZM127.72,684h.34l.21.31a49.52,49.52,0,0,0,9.75,14l.24.23-.12.32A11.14,11.14,0,1,1,127.72,684Zm118.72-24.54-8.23-1.17a7.43,7.43,0,0,0-7,11.81l5,6.65-9.34,7-5-6.65a7.4,7.4,0,0,0-4.89-2.89,7.29,7.29,0,0,0-5.51,1.41,7.38,7.38,0,0,0-2.9,4.89l-1.15,8.24-11.57-1.66,1.18-8.22a7.44,7.44,0,0,0-11.82-7l-6.65,5-7-9.34,6.65-5a7.43,7.43,0,0,0-3.41-13.3l-8.22-1.18,1.65-11.56,8.23,1.17a7.44,7.44,0,0,0,8.4-6.3,7.34,7.34,0,0,0-1.41-5.51l-5-6.65,9.35-7,5,6.65a7.43,7.43,0,0,0,13.3-3.41l1.17-8.22,11.57,1.65-1.18,8.23a7.44,7.44,0,0,0,11.82,7l6.65-5,7,9.34-6.65,5a7.43,7.43,0,0,0,3.41,13.3l8.22,1.18Z" transform="translate(40 36)"/><rect class="cls-3" x="264.61" y="741.88" width="13.12" height="3.18"/><rect class="cls-3" x="226.66" y="714.93" width="3.18" height="14.73" transform="translate(-432.77 471.26) rotate(-50.2)"/><rect class="cls-3" x="252.69" y="757.78" width="3.18" height="13.12"/><rect class="cls-3" x="88.64" y="638.36" width="25.26" height="5.14" transform="translate(-112.4 79.69) rotate(-14.03)"/><rect class="cls-3" x="103.52" y="600.37" width="5.14" height="26.4" transform="translate(-414.87 379.3) rotate(-54.47)"/><rect class="cls-3" x="124.38" y="586.43" width="5.15" height="25.29" transform="translate(-104.43 86.11) rotate(-14.34)"/><path class="cls-3" d="M201.69,387.57c11.69,1.83,22.43-5.09,28.55-14.71,7-11,7.35-24.75,7.29-37.32-.14-28.66-.43-57.32-.65-86q-.18-24.43-.37-48.86c0-3.86-6-3.87-6,0l.63,83.76q.17,20.94.32,41.87c.09,12.43,1,25.55-3.38,37.43a30.15,30.15,0,0,1-9.92,13.61c-4.35,3.27-9.73,5.22-14.87,4.41a3.09,3.09,0,0,0-3.69,2.1c-.39,1.42.48,3.43,2.09,3.69Z" transform="translate(40 36)"/><path class="cls-5" d="M148,578.5c0-3.43-.1-6.85.09-10.28.06-1,.13-2,.24-3,0-.23,0-.45.08-.68.09-.83,0,.29,0-.17s.16-1,.25-1.56a34.21,34.21,0,0,1,1.57-5.9c.08-.22.16-.44.25-.66l.15-.37s-.24.55-.1.25c.22-.5.45-1,.69-1.48a25.43,25.43,0,0,1,1.64-2.74c.13-.2.28-.39.42-.59.43-.61-.24.26.11-.14s.73-.88,1.12-1.29.76-.79,1.16-1.16c.19-.17.38-.35.58-.51a7.41,7.41,0,0,0,.57-.49c-.28.23.31-.23.44-.31s.51-.36.77-.54c.53-.35,1.09-.68,1.65-1s1-.55,1.57-.8l.83-.38c.42-.19-.42.17,0,0l.63-.25a34.8,34.8,0,0,1,4.11-1.26c.76-.19,1.52-.35,2.29-.49s1.62-.27,2.15-.34c6.05-.72,12.3-.4,18.39-.4H354.44c3.37,0,6.74,0,10.11,0H365c3.86,0,3.87-6,0-6H178.57c-11.82,0-24.49,3-31.28,13.53-4.61,7.15-5.35,16-5.33,24.28,0,1.56,0,3.13,0,4.69,0,3.86,6,3.87,6,0Z" transform="translate(40 36)"/><path class="cls-2" d="M462.7,527.89a57.49,57.49,0,0,0,31.21-4.19,36.32,36.32,0,0,0,18-19.16c4.05-9.74,3.61-20.28,3.61-30.61V304c0-3.86-6-3.87-6,0V478.46c0,2,0,4.05,0,6.07,0,1.63-.08,3.25-.21,4.87s-.25,2.58-.48,4a46,46,0,0,1-2.05,7.91c-.21.55-.42,1.11-.65,1.66.2-.49,0,0-.1.19s-.3.67-.46,1a33.55,33.55,0,0,1-1.65,3c-.28.45-.57.9-.87,1.34-.14.21-.3.42-.45.64a6,6,0,0,0-.36.49c.23-.3-.22.27-.31.38l-.48.59c-.35.4-.71.8-1.08,1.19-.69.73-1.42,1.43-2.18,2.09-.36.32-.73.62-1.1.92-.58.47.32-.22-.12.09l-.65.48a35.13,35.13,0,0,1-5,3c-.41.2-.81.39-1.22.57l-.62.27c.61-.27.17-.08-.16.06-.84.33-1.7.64-2.56.92a46.82,46.82,0,0,1-5.08,1.33c-.82.17-1.65.32-2.47.45-.35.05-1.52.18-.54.08-.43,0-.87.11-1.3.16a60.41,60.41,0,0,1-13.17,0c-.6-.07,1,.15.1,0a3.09,3.09,0,0,0-3.69,2.09c-.4,1.43.48,3.43,2.09,3.69Z" transform="translate(40 36)"/><path class="cls-3" d="M410.5,440.5a42.8,42.8,0,0,0-.23-6.1,69.86,69.86,0,0,0-3-15.17,59.41,59.41,0,0,0-9.31-18.11,55.15,55.15,0,0,0-19.21-15.86c-10-5-21.14-7.16-32.26-7.65-1.65-.08-3.31-.11-5-.11v6h0c3.86,0,3.87-6,0-6H260.88c-3.73,0-7.49-.14-11.22,0h-.16c-3.86,0-3.87,6,0,6h80.62c3.73,0,7.5.14,11.23,0h.16c3.86,0,3.87-6,0-6h0c-3.86,0-3.87,6,0,6,3.17,0,6.34.13,9.5.41a71.56,71.56,0,0,1,8,1.11,76,76,0,0,1,7.61,1.86c1.19.37,2.37.76,3.54,1.19l1.5.57.86.35c.32.13-.07,0-.11-.05l.48.2a56.67,56.67,0,0,1,11.09,6.4c.22.17.52.4.11.08l.61.49c.38.3.75.6,1.11.91.75.64,1.48,1.29,2.18,2a51.74,51.74,0,0,1,3.8,4c.29.34.56.68.84,1l.38.48c.2.26-.17-.22-.17-.21l.24.31c.54.72,1.06,1.44,1.55,2.17q1.43,2.1,2.64,4.32t2.14,4.34c.12.25.58,1.4.23.5.13.36.28.7.42,1.05.29.72.55,1.44.81,2.17a64.69,64.69,0,0,1,2.25,8c.26,1.19.48,2.38.67,3.58l.12.76c0,.19.16,1.16.08.52s0,.23.05.43l.09.79c.26,2.39.28,4.75.34,7.14v.1a3,3,0,0,0,6,0Z" transform="translate(40 36)"/><path class="cls-5" d="M147.5,144.5a68.06,68.06,0,0,0-9-.25,103.92,103.92,0,0,0-22.28,2.95,82.52,82.52,0,0,0-26.62,11.61,72.64,72.64,0,0,0-23.26,26C59,198.66,55.86,214.37,55.16,229.94c-.11,2.35-.16,4.71-.16,7.06a3,3,0,0,0,5.12,2.12,3,3,0,0,1-4.54-.54c-.14-.24-.26-1-.19-.42a3,3,0,0,0,.08.41c.19.79-.08-.85,0-.13.12,1.28.21,2.57.28,3.86.21,4.42.27,8.85.32,13.27.16,13.05.09,26.11,0,39.16q-.14,18.74-.38,37.46c-.07,4.92-.06,9.85-.26,14.77a129.47,129.47,0,0,0,.31,16.83,50.55,50.55,0,0,0,1.63,9.7c.79,2.66,2,5.52,4.45,7.08a6,6,0,0,0,3.68.93,3.08,3.08,0,0,0,3-3,3,3,0,0,0-3-3,3.85,3.85,0,0,0-.68,0c.34-.11.69.17.05-.06-.31-.11.76.43.08,0s.52.58-.08-.06c-.14-.16-.29-.34-.45-.49.68.64.15.19,0-.09l-.38-.67c-.12-.23-.53-1.26-.19-.34a30.2,30.2,0,0,1-1.21-4.07c-.16-.71-.29-1.42-.41-2.14-.06-.37-.11-.74-.17-1.12-.12-.77.08.68,0-.11,0-.23-.06-.46-.08-.69a119.32,119.32,0,0,1-.54-17.83c.16-4.88.21-9.76.27-14.65q.26-18.56.39-37.1c.09-13.25.16-26.5,0-39.74,0-4.57-.11-9.14-.32-13.7-.06-1.34-.12-2.68-.27-4s-.23-2.74-1.21-3.73a3.12,3.12,0,0,0-4.39,0L61,237a129,129,0,0,1,2.32-25.5,101,101,0,0,1,2.8-10.85c.52-1.62,1.09-3.23,1.7-4.81l.48-1.22c.07-.18.55-1.32.29-.71.33-.78.68-1.55,1-2.32a74.61,74.61,0,0,1,4.49-8.3q1.15-1.84,2.42-3.63L77.8,178c.11-.14.44-.55,0,0l.27-.35c.25-.31.5-.63.76-.94a68,68,0,0,1,5.66-6.1c1-.92,2-1.82,3-2.68l1.41-1.16.79-.62c-.67.52.16-.12.35-.26a72.79,72.79,0,0,1,12.81-7.65l1.59-.73.75-.32.34-.15c-.84.36-.15.07,0,0,1.08-.44,2.16-.86,3.25-1.26q3.17-1.14,6.41-2a95.89,95.89,0,0,1,12-2.51l.65-.09c.79-.11-.74.09.05,0l1.4-.17c.87-.1,1.74-.19,2.61-.26,1.57-.15,3.15-.25,4.72-.32,3.61-.15,7.16.08,10.75.17l.15,0c1.61.18,3-1.51,3-3a3.07,3.07,0,0,0-3-3Z" transform="translate(40 36)"/><path class="cls-3" d="M520.5,176.5a114.09,114.09,0,0,1,2.8-26.08,101.61,101.61,0,0,1,3.43-11.73c.32-.89.65-1.77,1-2.65.17-.43.34-.87.52-1.3l.13-.31.33-.77q1.15-2.66,2.47-5.23a91,91,0,0,1,5.74-9.71c.5-.73,1-1.46,1.52-2.17l.78-1.07.48-.63.17-.22c1.12-1.45,2.29-2.87,3.5-4.24a95.06,95.06,0,0,1,7.66-7.76q2-1.81,4.14-3.52l1-.8c.65-.52-.29.22.11-.09l.51-.39c.76-.57,1.52-1.14,2.3-1.69a109,109,0,0,1,19-10.78l1.2-.53.49-.21c.8-.34-.56.23.25-.1s1.79-.73,2.68-1.08q2.59-1,5.22-1.9,5.3-1.79,10.72-3.11t11-2.24c.89-.15,1.77-.28,2.66-.41l.81-.11,1.61-.21q2.82-.33,5.65-.57a155.67,155.67,0,0,1,22.65-.2c1.89.12,3.79.28,5.68.47.94.09,1.88.2,2.83.31l1.34.16.54.07.41.06c3.74.52,7.46,1.16,11.16,1.95a147.82,147.82,0,0,1,21.29,6.23c.86.32,1.71.66,2.56,1l1.21.49.61.25.24.1A3.1,3.1,0,0,0,695,84.71c.73-1.26.42-3.47-1.08-4.11a157.13,157.13,0,0,0-91.69-9.13A123.78,123.78,0,0,0,560.14,88.2a98,98,0,0,0-31.54,32.45c-8.7,14.81-13,31.75-13.92,48.82q-.18,3.51-.18,7c0,3.86,6,3.87,6,0Z" transform="translate(40 36)"/><path class="cls-3" d="M410.5,599.5a113.71,113.71,0,0,1-1.67,19.59,118.08,118.08,0,0,1-5,19.06,114.05,114.05,0,0,1-8,17.54q-2.38,4.27-5.1,8.36-1.34,2-2.74,4c-.47.65-.95,1.3-1.43,1.94s-.79,1-1.3,1.7a132.74,132.74,0,0,1-13.36,14.59,130.28,130.28,0,0,1-15.22,12.35,142.32,142.32,0,0,1-36.55,18.27A149.46,149.46,0,0,1,278,724.4c-1.84.07-3.68.1-5.52.1-3.86,0-3.87,6,0,6a158.19,158.19,0,0,0,44.42-6.34,149.31,149.31,0,0,0,38.78-17.69,139.47,139.47,0,0,0,30.94-27.06,129.21,129.21,0,0,0,21.11-34.86,120.26,120.26,0,0,0,8.64-39.87c.07-1.73.11-3.45.11-5.18,0-3.86-6-3.87-6,0Z" transform="translate(40 36)"/><path class="cls-3" d="M229.5,262.5c0,10.1,2.9,20,10.16,27.25,6.53,6.54,15.24,10.31,23.72,13.6,4.56,1.76,9.16,3.39,13.73,5.13,1.18.45,2.37.91,3.54,1.38l1.65.67.86.36.16.07.33.14c2.31,1,4.59,2,6.83,3.17s4.58,2.44,6.78,3.83q1.62,1,3.18,2.13l1.55,1.13.31.24c.55.41-.53-.43,0,0,.27.23.55.44.83.67a57.77,57.77,0,0,1,5.84,5.44c.92,1,1.81,2,2.66,3.08.16.2.75,1,.29.37l.63.83c.46.63.91,1.26,1.34,1.9a59.89,59.89,0,0,1,4.38,7.72c.33.7.65,1.42,1,2.13s-.16-.39,0,.06c.08.18.15.37.23.55.17.42.33.83.49,1.25q.91,2.4,1.65,4.88a86.33,86.33,0,0,1,2.48,10.87l.21,1.32c0,.29.08.59.13.89,0,.08.08.58,0,.1.15,1.12.28,2.25.4,3.38q.31,3.24.48,6.49c.11,2.32.16,4.65.16,7,0,3.86,6,3.87,6,0,0-15.51-2.19-31.61-9.8-45.36a62.84,62.84,0,0,0-23.53-23.51c-8.86-5.19-18.6-8.63-28.2-12.18-2.27-.84-4.54-1.69-6.78-2.59l-1.61-.65-.71-.3c-.19-.08-.62-.26.16.07l-.47-.2c-1.06-.45-2.11-.92-3.16-1.41-2-.93-3.95-1.94-5.85-3.07-.9-.53-1.79-1.09-2.67-1.69l-1.27-.89-.62-.47c-.46-.33.48.4.18.14-.13-.12-.28-.22-.42-.33a34.49,34.49,0,0,1-4.4-4.23c-.33-.38-.64-.78-1-1.17.66.8.05,0-.08-.13l-.49-.69a29.3,29.3,0,0,1-1.67-2.73c-.24-.44-.47-.89-.68-1.35-.12-.24-.23-.49-.34-.73-.38-.83.17.48-.11-.27a34.22,34.22,0,0,1-1.94-6.87c-.06-.31-.11-.61-.15-.92l-.06-.38c-.11-.65,0,.57,0,.13,0-.68-.16-1.36-.22-2.05-.11-1.39-.16-2.78-.16-4.17,0-3.86-6-3.87-6,0Z" transform="translate(40 36)"/><path class="cls-3" d="M1366,117c-9.86,0-20,.63-29.48,3.59a44.11,44.11,0,0,0-20.24,12.66c-6,6.8-9.59,15.25-12,23.89-3.32,11.91-4.63,24.38-5.49,36.68-1.21,17.34-1.26,34.73-1.29,52.11,0,18.22-.35,36.43-.61,54.64-.18,13.13-.41,26.27.11,39.39.36,8.89.94,18,3.36,26.63,1.69,6,4.54,12,9.5,16,5.3,4.24,11.89,5.82,18.55,6.29,1.86.13,3.73.17,5.59.15,3.86,0,3.87-6,0-6-1.89,0-3.78,0-5.67-.15-.84-.06-1.68-.15-2.51-.25s0,0,0,0l-.53-.08c-.43-.06-.85-.14-1.27-.21a34.08,34.08,0,0,1-4.34-1.11l-1-.34-.5-.19c-.71-.28.34.16.06,0-.62-.3-1.24-.57-1.85-.9s-1.12-.65-1.66-1l-.75-.53c-.56-.39.46.39.11.09l-.43-.35a22.49,22.49,0,0,1-2.75-2.77c-.1-.13-.2-.27-.31-.4.22.27.4.54.12.15s-.43-.59-.63-.89c-.39-.57-.74-1.15-1.08-1.75s-.69-1.29-1-2c-.15-.32-.28-.66-.43-1,.48,1-.11-.27-.22-.57a54.27,54.27,0,0,1-2.67-10.1c-.18-1-.34-2-.48-3l-.09-.69c.12.89,0,0,0-.19-.07-.54-.13-1.09-.19-1.63-.26-2.32-.46-4.65-.62-7-.79-11.87-.68-23.8-.56-35.7.17-16.65.51-33.31.65-50,.15-18.36-.07-36.72.72-55.07.31-7.14.75-14.28,1.48-21.39.16-1.61.34-3.23.54-4.84.08-.73.18-1.46.27-2.19.07-.5,0,.43,0-.06l.06-.43.18-1.28c.42-2.86.9-5.71,1.48-8.54a98.72,98.72,0,0,1,3.92-14.34l.57-1.49c.1-.27.21-.53.31-.79s.11-.25.16-.38c.21-.53-.17.39,0,.05.41-1,.84-1.91,1.3-2.85a49.89,49.89,0,0,1,3-5.33c.53-.82,1.09-1.61,1.67-2.39l.17-.22c.23-.31-.39.48-.14.18s.29-.37.44-.56c.3-.36.6-.73.91-1.08a38.51,38.51,0,0,1,3.9-3.87c.35-.3.71-.59,1.07-.88s0,0,0,0l.62-.46q1.13-.83,2.31-1.56a42.64,42.64,0,0,1,5-2.63l.59-.25c.36-.17-.57.22.13-.06.48-.19,1-.39,1.47-.57.92-.34,1.85-.66,2.79-1a63.35,63.35,0,0,1,6.21-1.56c1.07-.22,2.15-.41,3.23-.58l1.62-.24c-.81.12.1,0,.31,0l1-.12c2.46-.28,4.93-.47,7.4-.59q4-.19,7.93-.19c3.86,0,3.87-6,0-6Z" transform="translate(40 36)"/><path class="cls-3" d="M1780.5,259.5c0-20.2-2.25-40.63-8.33-60a133.26,133.26,0,0,0-23.73-44.62A126.27,126.27,0,0,0,1712.33,125a172.7,172.7,0,0,0-46.4-17.28,272.7,272.7,0,0,0-54.34-6.18c-2.36,0-4.73-.07-7.09-.07-3.86,0-3.87,6,0,6,9.29,0,18.57.36,27.83,1.16q3.36.3,6.72.67c1.11.12,2.21.25,3.32.39l1.5.19.9.12.4,0q6.46.9,12.89,2.14a201.86,201.86,0,0,1,24.35,6.29q5.77,1.89,11.39,4.19l1.26.53.28.12.75.32c.91.4,1.81.8,2.72,1.22q2.68,1.23,5.32,2.56a133.65,133.65,0,0,1,19.72,12.19l1.05.79c.69.52-.47-.37.21.16l.52.41c.78.61,1.56,1.24,2.33,1.88,1.48,1.22,2.92,2.47,4.34,3.76q4.25,3.87,8.12,8.13,1.93,2.16,3.78,4.39c.55.68,1.11,1.37,1.65,2.07l.18.23.48.63,1,1.28a118.62,118.62,0,0,1,6.56,9.9q3.12,5.25,5.73,10.79c.4.86.8,1.72,1.18,2.58q.33.72.63,1.44l.29.66c-.22-.52.21.52.25.61q1.23,3,2.32,6c6.54,18.15,9.32,36.84,9.94,55.92.09,2.75.13,5.49.13,8.24,0,3.86,6,3.87,6,0Z" transform="translate(40 36)"/><path class="cls-3" d="M1788.61,367.3c.31,1.13.53,2.3.73,3.45.11.6.21,1.2.29,1.8,0,.15,0,.3.07.45,0,.37-.11-.88,0-.21,0,.37.09.74.13,1.11.18,1.64.3,3.28.35,4.92,0,1.84,0,3.68-.11,5.52,0,.47-.08,1-.12,1.43,0,.31-.26,2-.1.9-.15,1-.3,2-.5,2.93a37.1,37.1,0,0,1-1.79,6c-.13.34-.3.72,0,.13l-.3.68q-.35.76-.72,1.5a31,31,0,0,1-1.68,2.83c-.3.46-.62.89-.94,1.33s.35-.42-.13.15c-.21.25-.41.51-.62.75a27.41,27.41,0,0,1-2.39,2.43c-.43.39-.88.76-1.34,1.13s.59-.43,0,0l-.34.25-.79.56a31.7,31.7,0,0,1-3.37,2c-.55.28-1.12.55-1.7.81l-.3.13c.36-.15-.12,0-.21.08l-1,.4a39.73,39.73,0,0,1-4.4,1.32,49.06,49.06,0,0,1-5,.94c.44-.06-.53.06-.72.08l-1.26.13c-1,.09-2,.15-2.93.2-3.67.17-7.35,0-11,.05-3.2.05-6.4.2-9.58.47a103.46,103.46,0,0,0-18,3c-10.5,2.82-20.41,7.89-28.15,15.62-8.36,8.35-13.71,19.19-17,30.46-4.42,15.33-5.39,31.58-5.18,47.45.25,19.24.58,38.51,1.86,57.71.82,12.22,1.74,24.83,5.1,36.66,1.87,6.58,4.94,14.35,11.89,16.93a12.43,12.43,0,0,0,4.15.7c3.86,0,3.87-6,0-6-.3,0-.6,0-.9,0-.14,0-.74-.07-.07,0s0,0-.17,0l-.84-.21c-.23-.07-1-.45-.51-.16l-.47-.25a8.3,8.3,0,0,1-.81-.49c-.11-.08-.22-.17-.35-.25-.29-.17.64.55.18.14-.24-.22-.5-.43-.74-.67s-.44-.43-.65-.66l-.35-.41c-.37-.43-.28-.11,0,.08-.5-.29-1-1.41-1.27-1.9a25.08,25.08,0,0,1-1.18-2.24c-.17-.37-.34-.75-.5-1.13.23.53.15.37,0,0l-.3-.77a74.67,74.67,0,0,1-3.44-13.5c-.24-1.37-.46-2.75-.67-4.13-.1-.69-.2-1.38-.29-2.06.09.66-.06-.48-.08-.66-.06-.4-.11-.81-.16-1.22-.41-3.35-.74-6.7-1-10.07-1.52-17.81-1.93-35.72-2.25-53.58-.32-17.19-.53-34.42,3.09-50.94.71-3.24,1.56-6.45,2.59-9.61q.72-2.25,1.58-4.46.38-1,.78-1.95c-.24.57.13-.3.21-.47.17-.39.34-.78.52-1.17a65.21,65.21,0,0,1,4-7.46c.7-1.13,1.45-2.24,2.23-3.32l.61-.84.28-.36c-.06.07-.39.48,0,.06s.85-1.07,1.29-1.59a52.46,52.46,0,0,1,5.31-5.44c.47-.42.95-.82,1.43-1.22l.69-.56.43-.34c-.29.23-.28.21,0,0,1-.77,2.08-1.52,3.16-2.22a58.21,58.21,0,0,1,6.64-3.7l1.76-.8.42-.18c.39-.17-.49.2-.09,0l1-.39c1.26-.5,2.54-1,3.83-1.39a79.4,79.4,0,0,1,8-2.16c1.39-.3,2.78-.57,4.19-.81.71-.12,1.43-.23,2.15-.33l.75-.11.25,0,.78-.1a141.14,141.14,0,0,1,19.06-.91c12.44.17,26-1.89,34.93-11.36,6.29-6.63,9-15.57,9.55-24.54a60.58,60.58,0,0,0-1.49-17c-.06-.29-.13-.58-.21-.86-1-3.72-6.81-2.14-5.78,1.6Z" transform="translate(40 36)"/><path class="cls-3" d="M1671.5,507.5l-10.66-.06-27.09-.16-36.42-.21-38.8-.22-33.79-.2-21.83-.12c-1.4,0-2.81-.07-4.21,0h-.2a8.41,8.41,0,0,0-.84.11c-.4.06,1.08-.13.59-.08l-2,.23a126.06,126.06,0,0,1-22.15.27c-1.26-.1-2.51-.21-3.76-.35l-1.86-.22-.5-.06c.79.09.38.05.21,0l-1.2-.18c-2.63-.39-5.26-.89-7.85-1.52a71.07,71.07,0,0,1-7.79-2.33c-.62-.22-1.24-.46-1.85-.71l-.87-.35c.78.32-.43-.19-.63-.28-1.2-.54-2.39-1.12-3.55-1.75s-2.41-1.36-3.57-2.12c-.52-.34-1-.69-1.54-1.06-.29-.2-.56-.41-.84-.61-.43-.31,0,0,.11.09l-.57-.45a38.32,38.32,0,0,1-5.78-5.75L1432,489c.43.54.17.23.08.1l-.64-.86c-.42-.59-.82-1.18-1.2-1.79a38.52,38.52,0,0,1-2.12-3.89l-.42-.93c-.07-.16-.27-.66,0,0l-.18-.43c-.28-.73-.55-1.46-.8-2.2a42.79,42.79,0,0,1-1.26-4.73c-.16-.76-.3-1.52-.41-2.28l-.12-.78c0,.12.07.6,0,0s-.11-.89-.15-1.34c-.17-1.78-.25-3.57-.25-5.36,0-3.86-6-3.87-6,0,0,13.09,4.54,25.89,14.78,34.44,8.74,7.3,19.83,11.11,31,12.91a123.92,123.92,0,0,0,27.55,1.27c2.1-.13,4.2-.3,6.28-.56.4,0,.81-.08,1.2-.16s-1.13,0-.68.1a8.84,8.84,0,0,0,1.26,0l17.24.1,31.37.18,38.41.22,38.07.22,30.41.18,15.47.09h.68c3.86,0,3.87-6,0-6Z" transform="translate(40 36)"/><path class="cls-3" d="M1770.5,654.5v44.23c0,.26,0,.52,0,.79a1.64,1.64,0,0,0,0,.22c0,.75.07-.46,0-.26a35.28,35.28,0,0,1-1,4.27c-.16.48-.32,1-.5,1.42l-.3.76c-.08.2-.32.69.09-.2-.08.17-.15.35-.23.52a31.72,31.72,0,0,1-1.83,3.46c-.36.58-.74,1.16-1.14,1.72-.2.29-.42.57-.63.86.57-.77-.3.35-.46.54a30.46,30.46,0,0,1-3.35,3.37c-.32.28-.65.54-1,.81-.56.47.53-.37-.08.06l-.53.39c-.8.57-1.63,1.11-2.48,1.62s-1.7.95-2.57,1.37l-1.39.64c.63-.28-.17.06-.25.1l-1,.38a48.13,48.13,0,0,1-15,2.88c-5.05.23-10.13-.07-15.18-.15-21.65-.34-43.31-.29-65-.17q-20.34.12-40.67.36h-.61c-3.86,0-3.87,6,0,6l9.84-.11q12.36-.14,24.74-.22,16.25-.1,32.5-.11,16.55,0,33.11.16c10.68.13,21.65,1.18,32.15-1.2,8-1.82,15.83-5.8,21.15-12.23a33.75,33.75,0,0,0,7-13.88,29.32,29.32,0,0,0,.54-6.67V654.5c0-3.86-6-3.87-6,0Z" transform="translate(40 36)"/><path class="cls-3" d="M1487.44,510.84q0,9.06,0,18.1l0,28.88c0,2.23,0,4.45,0,6.68,0,3.86,6,3.87,6,0q0-9,0-18.1,0-14.45,0-28.88v-6.68c0-3.86-6-3.86-6,0Z" transform="translate(40 36)"/><path class="cls-3" d="M1440.12,503.65c0,.69,0,1.39,0,2.08s-.07,1.59-.13,2.39c0,.48-.08,1-.14,1.43q0,.39-.09.78c0,.12,0,.25,0,.37,0,.37.12-.83,0-.16a56.83,56.83,0,0,1-1.7,7.74c-.43,1.47-1,2.92-1.51,4.34,0,.11-.28.68-.1.23s-.05.12-.09.23l-.54,1.18c-.36.77-.74,1.53-1.15,2.27a41.11,41.11,0,0,1-2.77,4.43c-.24.34-.48.66-.73,1s.15-.2.16-.2-.17.21-.26.32l-.46.56c-.61.74-1.25,1.45-1.91,2.13s-1.34,1.34-2,2l-1.1,1-.53.43-.27.21c-.44.36.27-.2,0,0a45.41,45.41,0,0,1-5.35,3.43c-1,.52-2,1-3,1.46-.17.08-.73.31-.26.12l-.87.35-1.67.62a55.46,55.46,0,0,1-7.51,2,59,59,0,0,1-8.27,1c-2.44.15-4.89.16-7.33.2-9.62.14-19.25.15-28.87.12q-16.63-.06-33.28-.28-16.85-.21-33.69-.51-15.06-.27-30.11-.6-11.23-.24-22.46-.51c-3.68-.09-7.36-.24-11-.28h-.49c-3.86-.1-3.86,5.9,0,6l7.73.2,20.46.47q14.55.33,29.08.6,16.88.32,33.76.56t34,.33c10.08.06,20.17.07,30.25,0,10.52-.11,21.12-.24,31.06-4.14a44.44,44.44,0,0,0,20.46-15.83,48.87,48.87,0,0,0,7.61-18,52.09,52.09,0,0,0,1.24-11.48c0-.17,0-.35,0-.52a3.07,3.07,0,0,0-3-3,3,3,0,0,0-3,3Z" transform="translate(40 36)"/><path class="cls-3" d="M1297,248c0,.49,0,1,0,1.48,0,.21,0,.42,0,.63s0,.23,0,.35c0,.62,0-.27,0-.26a23,23,0,0,1-.54,2.5c-.11.35-.24.69-.36,1-.23.66.34-.7,0-.07l-.24.51a11.34,11.34,0,0,1-1.19,1.9s.63-.73.06-.1c-.11.13-.21.25-.33.37q-.39.42-.81.81c-.07.06-.7.68-.76.64s.71-.51.29-.23l-.22.16-.47.32a16.58,16.58,0,0,1-2,1.13l-.54.25c-.62.3.66-.25.1,0-.4.15-.81.32-1.22.46a33.56,33.56,0,0,1-5,1.29c-.44.09-.89.16-1.34.24l-.65.1-.43.06.21,0c-1,.12-2,.24-3,.33-4.38.41-8.79.53-13.19.67-10,.31-20,.62-29.75,2.77s-19.36,6.53-26.28,14c-9.11,9.88-12.69,23.27-13.87,36.36-.19,2.11-.31,4.22-.38,6.34-.13,3.86,5.87,3.86,6,0a101.07,101.07,0,0,1,1.07-11.95,70.76,70.76,0,0,1,2.36-10.17c.48-1.53,1-3,1.63-4.52,0-.13.23-.53,0,.07l.22-.52.42-.94c.32-.67.64-1.33,1-2,.65-1.26,1.37-2.49,2.14-3.68.36-.54.72-1.08,1.1-1.6l.54-.74c.39-.55-.31.4,0,.05l.43-.54a39.47,39.47,0,0,1,5.24-5.34c.24-.2.48-.4.73-.59l.29-.23c.5-.41-.43.32-.09.07.52-.39,1-.77,1.57-1.14,1-.67,2-1.3,3-1.89s2.1-1.13,3.18-1.63l.83-.38c.21-.09,1.18-.49.29-.13.57-.23,1.14-.46,1.71-.67a58.6,58.6,0,0,1,6.87-2.11c2.39-.58,4.8-1,7.23-1.4l.84-.12.55-.08-.24,0,1.87-.23c1.24-.14,2.48-.26,3.73-.36,4.84-.41,9.7-.58,14.56-.73,8.32-.26,17.12-.14,25.16-2.56a21,21,0,0,0,9.13-5.12,16.92,16.92,0,0,0,4.51-10.06,23.78,23.78,0,0,0,.17-2.8c0-3.86-6-3.87-6,0Z" transform="translate(40 36)"/><path class="cls-6" d="M1413,691" transform="translate(40 36)"/><path class="cls-6" d="M512.5,394.85S671,363,671,410" transform="translate(40 36)"/></g></svg>